<svg xmlns="http://www.w3.org/2000/svg" xmlns:xlink="http://www.w3.org/1999/xlink" width="844.148" height="493.089" viewBox="0 0 844.148 493.089">
  <defs>
    <clipPath id="clip-path">
      <rect id="Rectangle_119" data-name="Rectangle 119" width="844.148" height="493.089" fill="none"/>
    </clipPath>
  </defs>
  <g id="Group_316" data-name="Group 316" clip-path="url(#clip-path)">
    <path id="Path_140" data-name="Path 140" d="M334.347,380.244c7.549,1.264,2.055-85.454-50.518-112.748" transform="translate(16.198 15.266)" fill="none" stroke="#f3999f" stroke-miterlimit="10" stroke-width="4"/>
    <path id="Path_141" data-name="Path 141" d="M484.436,368.57c14.935-29.012-107.958-133.454-172.011-113.706" transform="translate(17.83 14.404)" fill="none" stroke="#1c3265" stroke-miterlimit="10" stroke-width="4"/>
    <path id="Path_142" data-name="Path 142" d="M243.742,369.275a58.3,58.3,0,1,1-58.3-58.3,58.3,58.3,0,0,1,58.3,58.3" transform="translate(7.256 17.747)" fill="#76b0e0"/>
    <path id="Path_143" data-name="Path 143" d="M116.593,280.423a58.3,58.3,0,1,1-58.3-58.3,58.3,58.3,0,0,1,58.3,58.3" transform="translate(0 12.677)" fill="#76b0e0"/>
    <path id="Path_144" data-name="Path 144" d="M142.635,132.594a58.3,58.3,0,1,1-58.3-58.3,58.3,58.3,0,0,1,58.3,58.3" transform="translate(1.486 4.24)" fill="#76b0e0"/>
    <path id="Path_145" data-name="Path 145" d="M331.827,62.126a58.3,58.3,0,1,1-58.3-58.3,58.3,58.3,0,0,1,58.3,58.3" transform="translate(12.283 0.219)" fill="#76b0e0"/>
    <path id="Path_146" data-name="Path 146" d="M353.49,217.724A74.49,74.49,0,1,1,279,143.234a74.49,74.49,0,0,1,74.49,74.49" transform="translate(11.671 8.174)" fill="#76b0e0"/>
    <path id="Path_147" data-name="Path 147" d="M520.118,71.251A71.251,71.251,0,1,1,448.868,0a71.251,71.251,0,0,1,71.251,71.251" transform="translate(21.55)" fill="#76b0e0"/>
    <path id="Path_148" data-name="Path 148" d="M592.468,218.49A74.49,74.49,0,1,1,517.979,144a74.49,74.49,0,0,1,74.49,74.49" transform="translate(25.31 8.218)" fill="#1c3265"/>
    <path id="Path_149" data-name="Path 149" d="M805.745,229.766a94.192,94.192,0,1,1-94.191-94.191,94.192,94.192,0,0,1,94.191,94.191" transform="translate(35.232 7.737)" fill="#fff"/>
    <circle id="Ellipse_21" data-name="Ellipse 21" cx="94.192" cy="94.192" r="94.192" transform="translate(652.355 143.55) rotate(-0.145)" fill="none" stroke="#1c3265" stroke-miterlimit="10" stroke-width="6"/>
    <path id="Path_150" data-name="Path 150" d="M396.167,414.466a58.3,58.3,0,1,1-58.3-58.3,58.3,58.3,0,0,1,58.3,58.3" transform="translate(15.955 20.326)" fill="#f3999f"/>
    <path id="Path_151" data-name="Path 151" d="M583.827,379.232a58.3,58.3,0,1,1-58.3-58.3,58.3,58.3,0,0,1,58.3,58.3" transform="translate(26.665 18.316)" fill="#1c3265"/>
    <path id="Path_152" data-name="Path 152" d="M662.32,201.737a4.743,4.743,0,0,0,1.4,1.289q1.27-.436,2.2-.681t1.8-.426q.861-.179,1.93-.363v4.387a45.119,45.119,0,0,0-5.775,1.749,55.6,55.6,0,0,0-6.608,2.984l-.726-4.352q.744-.4,1.515-.743c.513-.23,1.048-.465,1.6-.708a6.253,6.253,0,0,1-1.8-4.441,6.483,6.483,0,0,1,.8-3.173,6.215,6.215,0,0,1,2.193-2.32,5.883,5.883,0,0,1,3.173-.87,8.12,8.12,0,0,1,2.946.47,10.745,10.745,0,0,1,2.384,1.324L667.94,199.4a13.279,13.279,0,0,0-1.8-.744,5.962,5.962,0,0,0-1.876-.308,2.88,2.88,0,0,0-1.7.57,1.672,1.672,0,0,0-.8,1.388,2.517,2.517,0,0,0,.562,1.431" transform="translate(37.468 11.075)" fill="#1a1818"/>
    <path id="Path_153" data-name="Path 153" d="M677.349,183.984v16.9a5.069,5.069,0,0,0,.616,2.892,2.838,2.838,0,0,0,2.411.842h.435v4.877h-.435q-3.934,0-5.775-2.049t-1.839-6.219V183.984Z" transform="translate(38.394 10.5)" fill="#1a1818"/>
    <path id="Path_154" data-name="Path 154" d="M689.153,196.3l.362,5a4.42,4.42,0,0,0,.391,1.65,2.431,2.431,0,0,0,.987,1.088,3.28,3.28,0,0,0,1.668.381h.363V209.3h-.4a7.366,7.366,0,0,1-2.212-.308,5.907,5.907,0,0,1-1.722-.853,6.075,6.075,0,0,1-1.286-1.268,7.264,7.264,0,0,1-2.6,1.795,8.42,8.42,0,0,1-3.254.634h-1.723v-4.877h1.723a3.621,3.621,0,0,0,2.846-.924,4.218,4.218,0,0,0,.8-2.811q0-1.015-.045-1.985t-.136-1.894Zm-.236-5.784-3.137,3.136-3.136-3.136,3.136-3.136Z" transform="translate(38.791 10.694)" fill="#1a1818"/>
    <path id="Path_155" data-name="Path 155" d="M692.4,208.937h-.87V204.06h.87Zm-.47,0V204.06H693.9a4.2,4.2,0,0,0,2.583-.644,2.855,2.855,0,0,0,.826-2.366,21,21,0,0,0-.209-2.593,29.562,29.562,0,0,0-.716-3.554l4.387-1.178a30.3,30.3,0,0,1,.681,3.489,25.158,25.158,0,0,1,.226,3.273,12.383,12.383,0,0,1-.725,4.433,5.882,5.882,0,0,1-2.411,2.955,8.6,8.6,0,0,1-4.606,1.061Zm6.472,5.4-3.137,3.136-3.136-3.136,3.136-3.136Z" transform="translate(39.465 11.056)" fill="#1a1818"/>
    <path id="Path_156" data-name="Path 156" d="M713.221,182.175a3.149,3.149,0,0,1-.345-1.577,3.449,3.449,0,0,1,1.115-2.647,3.642,3.642,0,0,1,2.548-1.034,4.218,4.218,0,0,1,1.26.164,5.571,5.571,0,0,1,1.06.47l.019,2.086a4.706,4.706,0,0,0-1.061-.408,4.464,4.464,0,0,0-1.024-.118,2.321,2.321,0,0,0-1.351.436,1.466,1.466,0,0,0-.626,1.287,1.344,1.344,0,0,0,.49.943,1.7,1.7,0,0,0,1.431.308.285.285,0,0,0,.073-.008.41.41,0,0,0,.073-.027l2.575-.943.29,2.049-7.162,2.829-.308-1.977,1.9-.725a4.093,4.093,0,0,1-.961-1.106m5.276,27.7h-4.6V186.961h4.6Z" transform="translate(40.649 10.097)" fill="#1a1818"/>
    <path id="Path_157" data-name="Path 157" d="M732.149,200.391a8.451,8.451,0,0,0-.444-1.252l-3.5-7.814,4.024-1.94,4.424,10.262q.6,1.4,1.07,2.447a5.658,5.658,0,0,0,1.034,1.632,1.883,1.883,0,0,0,1.414.58h.743v4.876h-.743a6.886,6.886,0,0,1-2.349-.353,5.4,5.4,0,0,1-1.7-.988,9.278,9.278,0,0,1-1.369-1.486,8.732,8.732,0,0,1-2.04,1.541,9.6,9.6,0,0,1-2.6.951,15.426,15.426,0,0,1-3.281.317q-1.522,0-2.62-.109a16.094,16.094,0,0,1-2.22-.381v-4.858a23.36,23.36,0,0,0,2.32.4,18.849,18.849,0,0,0,2.249.145,15.031,15.031,0,0,0,2.829-.254,5.179,5.179,0,0,0,2.148-.87,1.957,1.957,0,0,0,.824-1.65,4.7,4.7,0,0,0-.208-1.2" transform="translate(41.203 10.808)" fill="#1a1818"/>
    <path id="Path_158" data-name="Path 158" d="M740.076,208.937h-.87V204.06h.87Zm-.47,0V204.06h1.976a4.2,4.2,0,0,0,2.583-.644,2.855,2.855,0,0,0,.826-2.366,21.011,21.011,0,0,0-.209-2.593,29.574,29.574,0,0,0-.716-3.554l4.387-1.178a30.327,30.327,0,0,1,.681,3.489,25.168,25.168,0,0,1,.226,3.273,12.383,12.383,0,0,1-.725,4.433,5.882,5.882,0,0,1-2.411,2.955,8.6,8.6,0,0,1-4.606,1.061Zm6.472,5.4-3.137,3.136L739.8,214.34l3.136-3.136Z" transform="translate(42.186 11.056)" fill="#1a1818"/>
    <rect id="Rectangle_109" data-name="Rectangle 109" width="4.605" height="25.491" transform="translate(795.589 194.483)" fill="#1a1818"/>
    <path id="Path_159" data-name="Path 159" d="M659.583,251.318a32.384,32.384,0,0,1-5.82-.481,14.227,14.227,0,0,1-4.533-1.568,7.7,7.7,0,0,1-2.937-2.9,8.938,8.938,0,0,1-1.034-4.479,13.073,13.073,0,0,1,.353-3.037,19.112,19.112,0,0,1,.88-2.764l4.061,1.523q-.308.851-.6,1.93a7.942,7.942,0,0,0-.291,2.076,3.684,3.684,0,0,0,.753,2.385,4.988,4.988,0,0,0,2.1,1.468,12.755,12.755,0,0,0,3.154.753,32.768,32.768,0,0,0,3.907.217h3.88q1.378,0,2.711-.1a12.445,12.445,0,0,0,2.428-.408,4.114,4.114,0,0,0,1.75-.925A2.16,2.16,0,0,0,671,243.36a20.36,20.36,0,0,0-.236-2.521,31.458,31.458,0,0,0-.707-3.535l4.388-1.179a14.763,14.763,0,0,1,.5,2.14q.209,1.251.318,2.484t.109,2.085a8.8,8.8,0,0,1-.943,4.351,6.483,6.483,0,0,1-2.6,2.567,11.787,11.787,0,0,1-3.816,1.233,29.946,29.946,0,0,1-4.587.335Zm.834-16.5-3.029,3.009-2.954-3.009,2.954-2.974Zm6.092,0-2.992,3.009-2.991-3.009,2.991-2.974Z" transform="translate(36.824 13.231)" fill="#1a1818"/>
    <path id="Path_160" data-name="Path 160" d="M682.177,226.135v16.9a5.07,5.07,0,0,0,.616,2.892,2.838,2.838,0,0,0,2.411.842h.435v4.877H685.2q-3.934,0-5.775-2.049t-1.839-6.219V226.135Z" transform="translate(38.67 12.905)" fill="#1a1818"/>
    <path id="Path_161" data-name="Path 161" d="M693.382,236.486a25.954,25.954,0,0,1,2.357,1.749,14.15,14.15,0,0,1,1.868,1.876,7.82,7.82,0,0,1,1.232,2.085,6.44,6.44,0,0,1,.435,2.375,5.981,5.981,0,0,1-4.813,6.464,21.28,21.28,0,0,1-5.5.625h-4.387v-4.876h4.37a23.927,23.927,0,0,0,3.326-.19,4.351,4.351,0,0,0,1.968-.681,1.659,1.659,0,0,0,.652-1.413,1.968,1.968,0,0,0-.58-1.233,10.394,10.394,0,0,0-1.522-1.4q-.943-.725-2.059-1.45t-2.21-1.432q-1.1-.707-1.968-1.36a3.542,3.542,0,0,1-1.1-1.341,3.858,3.858,0,0,1,.09-3.554,2.657,2.657,0,0,1,1.424-1.251l13.815-5.638v4.8l-10.1,4.1q1.414.89,2.7,1.741" transform="translate(39.068 12.889)" fill="#1a1818"/>
    <rect id="Rectangle_110" data-name="Rectangle 110" width="4.605" height="25.491" transform="translate(743.31 239.04)" fill="#1a1818"/>
    <path id="Path_162" data-name="Path 162" d="M720.391,250.7a4.521,4.521,0,0,1-1.234-.507,12.838,12.838,0,0,1-1.794,4.858,11.692,11.692,0,0,1-3.636,3.617,15.7,15.7,0,0,1-5.466,2.094l-1.668-4.46a18.44,18.44,0,0,0,4.56-1.587,7.124,7.124,0,0,0,2.855-2.6,7.627,7.627,0,0,0,.98-4.024,15.558,15.558,0,0,0-.481-3.617q-.48-1.985-1.079-3.762l4.5-1.486,1.052,4.043a4.948,4.948,0,0,0,.969,2,2.313,2.313,0,0,0,1.858.753h.689V250.9H722a6.2,6.2,0,0,1-1.613-.2" transform="translate(40.325 13.652)" fill="#1a1818"/>
    <path id="Path_163" data-name="Path 163" d="M740.472,250.973a6,6,0,0,1-1.9-1.732,7.255,7.255,0,0,1-2.265,1.749,6.351,6.351,0,0,1-2.883.662,6.637,6.637,0,0,1-3.11-.644,5.489,5.489,0,0,1-1.985-1.731,6.864,6.864,0,0,1-2.429,1.741,9.058,9.058,0,0,1-3.627.634H721v-4.876h1.3a4.968,4.968,0,0,0,3.029-.753,3.231,3.231,0,0,0,.979-2.71c0-.193-.012-.483-.036-.871s-.052-.821-.081-1.3-.063-.956-.1-1.414l4.243-.526.38,4.606a4.212,4.212,0,0,0,.372,1.514,2.525,2.525,0,0,0,.906,1.07,2.587,2.587,0,0,0,1.46.39,2.647,2.647,0,0,0,2.266-.9,4.222,4.222,0,0,0,.671-2.564c0-.182-.01-.468-.029-.862s-.044-.831-.081-1.314-.072-.956-.109-1.414l4.243-.526.381,4.606a5.025,5.025,0,0,0,.317,1.477,2.473,2.473,0,0,0,.789,1.089,2.126,2.126,0,0,0,1.342.408,1.659,1.659,0,0,0,1.214-.444,2.564,2.564,0,0,0,.654-1.224,7.151,7.151,0,0,0,.2-1.759q0-.653-.064-1.786c-.042-.755-.092-1.507-.153-2.257l4.243-.525.381,5.022a4.031,4.031,0,0,0,.389,1.6,2.356,2.356,0,0,0,.97,1.015,3.244,3.244,0,0,0,1.6.354h.507v4.876h-.47a6.925,6.925,0,0,1-3-.607,4.636,4.636,0,0,1-1.967-1.678,6.01,6.01,0,0,1-1.8,1.641,5.134,5.134,0,0,1-2.674.644,5.422,5.422,0,0,1-2.792-.68m-3.319-17.541-2.828,2.829-2.828-2.829,2.828-2.828Zm3.155-4.624-2.828,2.829-2.829-2.829,2.829-2.828Zm3.154,4.624-2.828,2.829-2.829-2.829,2.829-2.828Z" transform="translate(41.147 12.897)" fill="#1a1818"/>
    <path id="Path_164" data-name="Path 164" d="M752.186,246.767q1.958,0,2.512-.951a5.586,5.586,0,0,0,.552-2.765V226.135h4.588v17.26q0,4.08-1.814,6.165t-5.855,2.085h-1.341v-4.877Z" transform="translate(42.849 12.905)" fill="#1a1818"/>
    <rect id="Rectangle_111" data-name="Rectangle 111" width="4.605" height="25.491" transform="translate(807.692 239.04)" fill="#1a1818"/>
    <path id="Path_165" data-name="Path 165" d="M455.6,215.445a7.962,7.962,0,0,1-3.234-3.52,11.66,11.66,0,0,1-1.042-5.008,19.108,19.108,0,0,1,.327-3.385,21.726,21.726,0,0,1,1.075-3.8l3.615,1.4a25.6,25.6,0,0,0-.869,3.1,12.738,12.738,0,0,0-.294,2.556,7.3,7.3,0,0,0,.55,2.866,4.348,4.348,0,0,0,1.871,2.087,7.147,7.147,0,0,0,3.631.78,12.735,12.735,0,0,0,4.069-.541,6.511,6.511,0,0,0,2.3-1.226q.733-.685.732-1.115a.854.854,0,0,0-.565-.836,4.807,4.807,0,0,0-1.792-.246h-2.468q-.606,0-.772-.318a4.85,4.85,0,0,1-.328-.86l-.621-2.293a.927.927,0,0,1-.048-.6q.079-.2.557-.2h9.428v4.268a3.111,3.111,0,0,1,.16.573,3.523,3.523,0,0,1,.032.494,5.492,5.492,0,0,1-.7,2.668,7.047,7.047,0,0,1-2.071,2.285,10.728,10.728,0,0,1-3.36,1.585,16.292,16.292,0,0,1-4.554.581,10.93,10.93,0,0,1-5.63-1.3" transform="translate(25.757 11.399)" fill="#fff"/>
    <path id="Path_166" data-name="Path 166" d="M473.95,186.884h4.03v14.922a6.139,6.139,0,0,0,.215,1.752,1.908,1.908,0,0,0,.764,1.083,2.822,2.822,0,0,0,1.569.367H481v4.283h-.446a7.263,7.263,0,0,1-1.983-.239,4.459,4.459,0,0,1-1.464-.708,5.388,5.388,0,0,1-1.138-1.171,6.719,6.719,0,0,1-1.2,1.14,4.852,4.852,0,0,1-1.529.724,7.878,7.878,0,0,1-2.159.255h-1.019v-4.283h.924a3.641,3.641,0,0,0,1.76-.358,2.022,2.022,0,0,0,.923-1.075,4.949,4.949,0,0,0,.279-1.783Z" transform="translate(26.826 10.665)" fill="#fff"/>
    <path id="Path_167" data-name="Path 167" d="M483,203.383a9.658,9.658,0,0,1-.39-1.441,7.356,7.356,0,0,1-.144-1.386,6.47,6.47,0,0,1,.94-3.416,7.262,7.262,0,0,1,2.5-2.493,6.577,6.577,0,0,1,3.457-.939,8.02,8.02,0,0,1,3.145.613,17.279,17.279,0,0,1,3,1.664l-1.545,3.5a17.59,17.59,0,0,0-2.11-1.067,5.652,5.652,0,0,0-2.205-.43,3.937,3.937,0,0,0-1.561.327,3.259,3.259,0,0,0-1.258.924,2.166,2.166,0,0,0-.494,1.425,3.227,3.227,0,0,0,.343,1.465,4.395,4.395,0,0,0,.813,1.155,3.842,3.842,0,0,0,.788.645.815.815,0,0,0,.135-.016l.167-.032,7.565-1.816v4.284q-2.007.62-3.9,1.091t-3.718.8q-1.823.327-3.583.494t-3.48.167h-1.592v-4.284h3.71a6.413,6.413,0,0,1-.581-1.234" transform="translate(27.386 11.055)" fill="#fff"/>
    <path id="Path_168" data-name="Path 168" d="M526.754,203.348a12.749,12.749,0,0,1-1.353.072,7.056,7.056,0,0,1-4.38-1.219,4.459,4.459,0,0,1-1.592-3.782,8.552,8.552,0,0,1,1.569-4.88,5.915,5.915,0,0,1,1.848-1.7,4.79,4.79,0,0,1,2.46-.637,5.084,5.084,0,0,1,3.042.892,6.577,6.577,0,0,1,2.006,2.373,12.211,12.211,0,0,1,1.115,3.3,19.582,19.582,0,0,1,.35,3.7,13.97,13.97,0,0,1-.485,4.028,5.054,5.054,0,0,1-1.5,2.437,5.754,5.754,0,0,1-2.588,1.195,18.433,18.433,0,0,1-3.775.335h-5.3a28.537,28.537,0,0,1-5.129-.423,12.388,12.388,0,0,1-3.974-1.377,6.771,6.771,0,0,1-2.571-2.548,7.834,7.834,0,0,1-.909-3.933,11.479,11.479,0,0,1,.311-2.668,16.889,16.889,0,0,1,.773-2.429l3.568,1.354q-.271.733-.525,1.681a7,7,0,0,0-.255,1.823,3.2,3.2,0,0,0,.668,2.094,4.442,4.442,0,0,0,1.855,1.29,11.159,11.159,0,0,0,2.772.661,28.488,28.488,0,0,0,3.416.191h5.59a21.18,21.18,0,0,0,2.412-.111,2.4,2.4,0,0,0,1.393-.55,1.821,1.821,0,0,0,.462-1.377,12.861,12.861,0,0,1-1.274.2m.94-16.857-2.756,2.755-2.754-2.755,2.754-2.755Zm-1.035,13.059a12.513,12.513,0,0,0,1.257-.223,10.472,10.472,0,0,0-.294-1.314,7.113,7.113,0,0,0-.517-1.305,3.287,3.287,0,0,0-.765-1,1.585,1.585,0,0,0-1.068-.383,1.69,1.69,0,0,0-1.209.47,2.879,2.879,0,0,0-.733,1.138,3.866,3.866,0,0,0-.239,1.307,1.077,1.077,0,0,0,.652,1.138,4.68,4.68,0,0,0,1.641.246,10.321,10.321,0,0,0,1.275-.079" transform="translate(28.854 10.486)" fill="#fff"/>
    <path id="Path_169" data-name="Path 169" d="M540.878,208.46a3.972,3.972,0,0,1-1.082-.446,11.272,11.272,0,0,1-1.577,4.268,10.243,10.243,0,0,1-3.192,3.177,13.784,13.784,0,0,1-4.8,1.839l-1.466-3.918a16.161,16.161,0,0,0,4.005-1.393,6.247,6.247,0,0,0,2.508-2.285,6.713,6.713,0,0,0,.86-3.535,13.556,13.556,0,0,0-.423-3.178q-.42-1.744-.947-3.3l3.949-1.307.924,3.552a4.347,4.347,0,0,0,.853,1.76,2.03,2.03,0,0,0,1.632.661h.6v4.284H542.3a5.483,5.483,0,0,1-1.419-.175" transform="translate(30.176 11.321)" fill="#fff"/>
    <path id="Path_170" data-name="Path 170" d="M554.258,195.286a15.373,15.373,0,0,1,2.612.58,6.132,6.132,0,0,1,1.99,1.012,1.863,1.863,0,0,1,.773,1.5,2.432,2.432,0,0,1-.279,1,8.737,8.737,0,0,1-.74,1.251q-.463.661-1,1.33t-1.1,1.258c-.372.393-.7.733-.987,1.019a7.042,7.042,0,0,0,1.418.256q.685.046,1.258.047h2.468v4.284h-2.452a14.015,14.015,0,0,1-3.471-.422,13.734,13.734,0,0,1-3.137-1.219,11.5,11.5,0,0,1-2.35.908,19.956,19.956,0,0,1-2.732.55,20.214,20.214,0,0,1-2.627.183h-2.484v-4.284h2.5c.265,0,.627,0,1.082-.007s.932-.032,1.426-.08a6.829,6.829,0,0,0,1.282-.23q-.447-.43-.987-1.019t-1.091-1.266q-.55-.677-1-1.337a10.272,10.272,0,0,1-.741-1.242,2.319,2.319,0,0,1-.287-.98,1.871,1.871,0,0,1,.764-1.5,6.025,6.025,0,0,1,1.983-1.012,15.358,15.358,0,0,1,2.611-.58,18.37,18.37,0,0,1,5.3,0m-4.364,3.79a12.8,12.8,0,0,0-1.934.318q.733.829,1.585,1.656t2.062,1.927q.733-.636,1.3-1.163t1.2-1.162q.637-.637,1.179-1.259a12.42,12.42,0,0,0-1.934-.318q-.964-.079-1.728-.079-.78,0-1.728.079" transform="translate(30.898 11.134)" fill="#fff"/>
    <path id="Path_171" data-name="Path 171" d="M563.423,191.274l-2.66,2.643-2.6-2.643,2.6-2.612Zm-3.2,17.916h-1.131v-4.284h1.131Zm-.413,0v-4.284h1.735a3.685,3.685,0,0,0,2.27-.566,2.5,2.5,0,0,0,.724-2.078,18.279,18.279,0,0,0-.184-2.277,25.921,25.921,0,0,0-.628-3.122l3.853-1.035a26.539,26.539,0,0,1,.6,3.065,22.032,22.032,0,0,1,.2,2.874,10.859,10.859,0,0,1-.637,3.894,5.167,5.167,0,0,1-2.117,2.6,7.555,7.555,0,0,1-4.047.932Zm8.965-17.916-2.627,2.643-2.629-2.643,2.629-2.612Z" transform="translate(31.854 10.767)" fill="#fff"/>
    <path id="Path_172" data-name="Path 172" d="M476.988,246.03a28.535,28.535,0,0,1-5.112-.422,12.5,12.5,0,0,1-3.981-1.378,6.745,6.745,0,0,1-2.58-2.548,7.834,7.834,0,0,1-.908-3.933,11.408,11.408,0,0,1,.311-2.667,16.6,16.6,0,0,1,.773-2.429l3.567,1.337q-.271.748-.525,1.7a7,7,0,0,0-.255,1.823,3.229,3.229,0,0,0,.661,2.094,4.375,4.375,0,0,0,1.848,1.29,11.2,11.2,0,0,0,2.772.662,28.852,28.852,0,0,0,3.431.19H480.4q1.21,0,2.381-.088a10.8,10.8,0,0,0,2.134-.358,3.6,3.6,0,0,0,1.537-.812,1.9,1.9,0,0,0,.573-1.449,18.022,18.022,0,0,0-.206-2.213,27.859,27.859,0,0,0-.622-3.106l3.854-1.035a13.184,13.184,0,0,1,.438,1.879q.182,1.1.279,2.182t.1,1.831a7.73,7.73,0,0,1-.828,3.822,5.69,5.69,0,0,1-2.285,2.254,10.31,10.31,0,0,1-3.353,1.082,26.2,26.2,0,0,1-4.029.295Zm.733-14.492-2.66,2.644-2.6-2.644,2.6-2.612Zm5.351,0-2.628,2.644-2.628-2.644,2.628-2.612Z" transform="translate(26.503 13.065)" fill="#fff"/>
    <path id="Path_173" data-name="Path 173" d="M496.836,223.909v14.842a4.447,4.447,0,0,0,.542,2.54,2.488,2.488,0,0,0,2.117.741h.383v4.283H499.5q-3.455,0-5.072-1.8t-1.617-5.463V223.909Z" transform="translate(28.124 12.778)" fill="#fff"/>
    <path id="Path_174" data-name="Path 174" d="M506.677,233a22.9,22.9,0,0,1,2.071,1.537,12.432,12.432,0,0,1,1.641,1.648,6.9,6.9,0,0,1,1.082,1.832,5.664,5.664,0,0,1,.382,2.086,5.258,5.258,0,0,1-4.228,5.678,18.636,18.636,0,0,1-4.833.55h-3.854v-4.284h3.838a21.081,21.081,0,0,0,2.922-.167,3.813,3.813,0,0,0,1.728-.6,1.459,1.459,0,0,0,.573-1.242,1.733,1.733,0,0,0-.508-1.083,9.218,9.218,0,0,0-1.338-1.225q-.829-.637-1.808-1.275T502.4,235.2q-.964-.622-1.728-1.195a3.124,3.124,0,0,1-.963-1.179,3.388,3.388,0,0,1,.079-3.122,2.331,2.331,0,0,1,1.251-1.1l12.134-4.953v4.221l-8.87,3.6q1.243.78,2.373,1.529" transform="translate(28.474 12.764)" fill="#fff"/>
    <rect id="Rectangle_112" data-name="Rectangle 112" width="4.044" height="22.391" transform="translate(544.691 236.688)" fill="#fff"/>
    <path id="Path_175" data-name="Path 175" d="M530.4,245.485a3.98,3.98,0,0,1-1.084-.446,11.252,11.252,0,0,1-1.577,4.268,10.25,10.25,0,0,1-3.191,3.176,13.8,13.8,0,0,1-4.8,1.839l-1.467-3.918a16.147,16.147,0,0,0,4.005-1.393,6.247,6.247,0,0,0,2.508-2.285,6.713,6.713,0,0,0,.862-3.535,13.506,13.506,0,0,0-.424-3.178q-.42-1.744-.947-3.3l3.95-1.307.923,3.552a4.375,4.375,0,0,0,.853,1.76,2.032,2.032,0,0,0,1.632.661h.606v4.284h-.429a5.478,5.478,0,0,1-1.419-.175" transform="translate(29.578 13.434)" fill="#fff"/>
    <path id="Path_176" data-name="Path 176" d="M539.115,245.759a4.84,4.84,0,0,1-1.743-1.521,6.04,6.04,0,0,1-2.134,1.53,7.973,7.973,0,0,1-3.185.557h-1.115V242.04h1.147a4.355,4.355,0,0,0,2.66-.661A2.839,2.839,0,0,0,535.6,239q0-.255-.031-.764c-.022-.339-.046-.722-.073-1.147s-.055-.838-.088-1.242l3.727-.462.334,4.045a3.665,3.665,0,0,0,.328,1.329,2.227,2.227,0,0,0,.8.941,2.279,2.279,0,0,0,1.282.341,2.325,2.325,0,0,0,1.989-.787,3.709,3.709,0,0,0,.59-2.254c0-.16-.009-.411-.023-.757s-.041-.729-.073-1.154-.062-.838-.1-1.242l3.727-.462.334,4.045a4.62,4.62,0,0,0,.271,1.29,2.146,2.146,0,0,0,.677.964,1.831,1.831,0,0,0,1.17.357,1.474,1.474,0,0,0,1.067-.382,2.194,2.194,0,0,0,.574-1.035,5.485,5.485,0,0,0,.174-1.418,13.129,13.129,0,0,0-.271-2.477q-.271-1.394-.573-2.6l3.854-1.019a24.485,24.485,0,0,1,.589,2.842,19.682,19.682,0,0,1,.207,2.842,12.712,12.712,0,0,1-.526,3.75,5.681,5.681,0,0,1-1.735,2.739,5.019,5.019,0,0,1-3.313,1.043,4.746,4.746,0,0,1-2.468-.6,5.339,5.339,0,0,1-1.656-1.521,6.377,6.377,0,0,1-1.99,1.537,5.582,5.582,0,0,1-2.533.581,5.833,5.833,0,0,1-2.732-.566m6.013-15.44-2.485,2.484-2.483-2.484,2.483-2.484Zm2.771-4.061-2.484,2.485-2.484-2.485,2.484-2.484Zm2.772,4.061-2.485,2.484-2.484-2.484,2.484-2.484Z" transform="translate(30.3 12.771)" fill="#fff"/>
    <path id="Path_177" data-name="Path 177" d="M223.7,203.4q-.566-.629-1.13-1.335c-.376-.468-.723-.929-1.041-1.378a9.754,9.754,0,0,1-.762-1.246,2.228,2.228,0,0,1-.286-.94,1.717,1.717,0,0,1,.7-1.364A5.562,5.562,0,0,1,223,196.2a13.463,13.463,0,0,1,2.412-.535,17.667,17.667,0,0,1,4.877,0,13.515,13.515,0,0,1,2.406.535,5.664,5.664,0,0,1,1.833.939,1.71,1.71,0,0,1,.7,1.364,2.237,2.237,0,0,1-.272.94,9.061,9.061,0,0,1-.734,1.217q-.461.66-1.026,1.342t-1.159,1.335q-.595.652-1.107,1.195a9.548,9.548,0,0,0,2.4.506q1.291.111,2.626.11h.968v3.946h-.866a22.084,22.084,0,0,1-2.743-.162,11.863,11.863,0,0,1-2.626-.652,16.2,16.2,0,0,1-2.948-1.5q-.953.558-1.8,1.13a12.6,12.6,0,0,0-1.5,1.173,5.445,5.445,0,0,0-1.019,1.224,2.5,2.5,0,0,0-.367,1.284,3.109,3.109,0,0,0,.689,2.032,4.274,4.274,0,0,0,1.914,1.283,8.344,8.344,0,0,0,2.823.44,17.434,17.434,0,0,0,3-.264,19.676,19.676,0,0,0,2.691-.645l.924,3.814a27.413,27.413,0,0,1-3.235.71,20.808,20.808,0,0,1-3.234.257,13.041,13.041,0,0,1-4.628-.777,6.834,6.834,0,0,1-3.256-2.464,7.412,7.412,0,0,1-1.2-4.386,5.785,5.785,0,0,1,.492-2.464,6.924,6.924,0,0,1,1.276-1.878,12.413,12.413,0,0,1,1.687-1.474q.9-.652,1.723-1.24-.469-.5-1.034-1.129m2.574-4.246a12,12,0,0,0-1.775.3q.674.763,1.452,1.525t1.907,1.775q.66-.587,1.188-1.078t1.107-1.071q.58-.58,1.093-1.151a11.983,11.983,0,0,0-1.782-.3q-.888-.081-1.606-.08t-1.585.08" transform="translate(12.53 11.157)" fill="#1a1818"/>
    <path id="Path_178" data-name="Path 178" d="M243.829,209.036a8.114,8.114,0,0,1-1.767-.821A17.344,17.344,0,0,1,240.338,207a11.073,11.073,0,0,1-1.1,1.019,4.432,4.432,0,0,1-1.291.711,5.513,5.513,0,0,1-1.849.264h-.616v-3.945h.543a1.925,1.925,0,0,0,1.365-.557,7.132,7.132,0,0,0,1.129-1.445q.542-.888,1.122-1.878a15.73,15.73,0,0,1,1.3-1.885,5.985,5.985,0,0,1,1.687-1.451,4.532,4.532,0,0,1,2.3-.558,5.641,5.641,0,0,1,3.132.858,5.792,5.792,0,0,1,2.046,2.266,6.678,6.678,0,0,1,.718,3.08,7.527,7.527,0,0,1-.572,3.021,4.674,4.674,0,0,1-1.693,2.076,4.927,4.927,0,0,1-2.809.756,6.226,6.226,0,0,1-1.922-.294m.08-7.583a4.521,4.521,0,0,0-.894,1.035,10.042,10.042,0,0,0-.653,1.18,8.845,8.845,0,0,0,.829.712,8.251,8.251,0,0,0,.756.505,4.723,4.723,0,0,0,1,.441,3.028,3.028,0,0,0,.814.131,1.348,1.348,0,0,0,1.21-.557,2.364,2.364,0,0,0,.374-1.35,2.7,2.7,0,0,0-.616-1.782,2.078,2.078,0,0,0-1.686-.74,1.723,1.723,0,0,0-1.137.425" transform="translate(13.439 11.258)" fill="#1a1818"/>
    <path id="Path_179" data-name="Path 179" d="M263.264,215.73a6.522,6.522,0,0,1-2.823-2.933,10.353,10.353,0,0,1-.939-4.6,16.347,16.347,0,0,1,.389-3.469,22.561,22.561,0,0,1,1.034-3.455l3.33,1.291q-.471,1.321-.851,2.832a11.563,11.563,0,0,0-.382,2.83,5.459,5.459,0,0,0,.535,2.523,3.516,3.516,0,0,0,1.628,1.577,6.392,6.392,0,0,0,2.81.535,4.791,4.791,0,0,0,2.647-.637,3.458,3.458,0,0,0,1.387-1.848,9.254,9.254,0,0,0,.41-2.942v-18.6h3.726v13.435a5.309,5.309,0,0,0,.447,2.362,1.928,1.928,0,0,0,1.914.9h.44v3.945h-.411a5.3,5.3,0,0,1-1.034-.088,3.04,3.04,0,0,1-.777-.264,4.258,4.258,0,0,1-.683-.44,12.747,12.747,0,0,1-.637,3.4,7.016,7.016,0,0,1-1.5,2.538,6.324,6.324,0,0,1-2.458,1.583,10.036,10.036,0,0,1-3.468.542,9.858,9.858,0,0,1-4.73-1.019" transform="translate(14.81 10.777)" fill="#1a1818"/>
    <path id="Path_180" data-name="Path 180" d="M287.618,201.273a20.3,20.3,0,0,1,2.413-2.714,10.666,10.666,0,0,1,2.654-1.84,6.709,6.709,0,0,1,2.933-.668,6.613,6.613,0,0,1,3.227.771,5.665,5.665,0,0,1,2.207,2.127,5.972,5.972,0,0,1,.8,3.088,6.212,6.212,0,0,1-.836,3.33,6.059,6.059,0,0,1-2.369,2.163,12.039,12.039,0,0,1-3.6,1.174,26.516,26.516,0,0,1-4.518.358h-.777a20.953,20.953,0,0,1-3.051-.2,8.959,8.959,0,0,1-2.326-.638,5.3,5.3,0,0,1-1.664-1.129,5.919,5.919,0,0,1-1.944,1.452,6.647,6.647,0,0,1-2.794.513h-.587l.014-3.945h.573a2.979,2.979,0,0,0,2.412-.756,3.621,3.621,0,0,0,.594-2.265c0-.549-.015-1.078-.043-1.592s-.064-1.024-.1-1.533l3.432-.411.264,4.019a5.476,5.476,0,0,0,.272,1.3c.142.417.349.648.624.7a36.623,36.623,0,0,1,2.192-3.3m6.38-.939a7.9,7.9,0,0,0-1.723,1.13,13.859,13.859,0,0,0-1.644,1.658,24.283,24.283,0,0,0-1.511,1.995h1.54q1.6,0,2.978-.117a11.82,11.82,0,0,0,2.421-.433,3.93,3.93,0,0,0,1.613-.865,1.86,1.86,0,0,0,.572-1.4,2.228,2.228,0,0,0-.711-1.723,2.578,2.578,0,0,0-1.812-.652,4.023,4.023,0,0,0-1.723.41" transform="translate(15.83 11.188)" fill="#1a1818"/>
    <rect id="Rectangle_113" data-name="Rectangle 113" width="3.725" height="20.623" transform="translate(320.956 199.613)" fill="#1a1818"/>
    <path id="Path_181" data-name="Path 181" d="M318.168,197.551a5.759,5.759,0,0,1,1.8,1.79,9.5,9.5,0,0,1,1.157,2.61,14.189,14.189,0,0,1,.506,3.117h1.217v3.945h-1.481a9.708,9.708,0,0,1-1.73,3.7,9.827,9.827,0,0,1-3.212,2.641,17.407,17.407,0,0,1-4.885,1.62L310.2,213.37a21.228,21.228,0,0,0,3.5-.99,10.015,10.015,0,0,0,2.647-1.46,4.232,4.232,0,0,0,1.439-1.907h-1.554a7.021,7.021,0,0,1-4.46-1.217,4.678,4.678,0,0,1-1.526-3.887,8.789,8.789,0,0,1,.332-2.318,8.368,8.368,0,0,1,1-2.289,5.624,5.624,0,0,1,1.7-1.738,4.342,4.342,0,0,1,2.421-.667,4.581,4.581,0,0,1,2.463.653m.031,7.517a10.429,10.429,0,0,0-.236-1.525,6.511,6.511,0,0,0-.476-1.386,2.954,2.954,0,0,0-.749-1,1.6,1.6,0,0,0-1.063-.374,1.439,1.439,0,0,0-1.166.52,3.032,3.032,0,0,0-.607,1.218,5.1,5.1,0,0,0-.178,1.24,1.01,1.01,0,0,0,.661,1.063,5.419,5.419,0,0,0,1.8.242Z" transform="translate(17.703 11.237)" fill="#1a1818"/>
    <path id="Path_182" data-name="Path 182" d="M325.659,192.879l-2.448,2.434-2.392-2.434,2.392-2.4Zm-2.948,16.5H321.67v-3.945h1.041Zm-.381,0v-3.945h1.6a3.4,3.4,0,0,0,2.091-.521,2.312,2.312,0,0,0,.667-1.914,16.983,16.983,0,0,0-.169-2.1,23.828,23.828,0,0,0-.579-2.874l3.55-.953a24.23,24.23,0,0,1,.55,2.823,20.144,20.144,0,0,1,.184,2.647,10.012,10.012,0,0,1-.587,3.587,4.76,4.76,0,0,1-1.951,2.391,6.958,6.958,0,0,1-3.725.857Zm8.258-16.5-2.421,2.434-2.42-2.434,2.42-2.4Z" transform="translate(18.309 10.87)" fill="#1a1818"/>
    <path id="Path_183" data-name="Path 183" d="M244.636,243.311a26.286,26.286,0,0,1-4.709-.389,11.533,11.533,0,0,1-3.667-1.268,6.235,6.235,0,0,1-2.376-2.347,7.225,7.225,0,0,1-.835-3.623,10.549,10.549,0,0,1,.285-2.458,15.36,15.36,0,0,1,.711-2.237l3.285,1.233q-.249.69-.483,1.562a6.418,6.418,0,0,0-.236,1.68,2.975,2.975,0,0,0,.609,1.928,4.034,4.034,0,0,0,1.7,1.188,10.283,10.283,0,0,0,2.552.609,26.46,26.46,0,0,0,3.162.177h3.138q1.115,0,2.192-.081a10.083,10.083,0,0,0,1.966-.33,3.331,3.331,0,0,0,1.415-.748,1.748,1.748,0,0,0,.527-1.334,16.56,16.56,0,0,0-.19-2.039,25.534,25.534,0,0,0-.572-2.86l3.55-.954a11.967,11.967,0,0,1,.4,1.73q.168,1.012.257,2.009c.059.666.088,1.227.088,1.687a7.128,7.128,0,0,1-.762,3.52,5.247,5.247,0,0,1-2.1,2.076,9.519,9.519,0,0,1-3.088,1,24.053,24.053,0,0,1-3.711.272Zm.674-13.348-2.449,2.434-2.391-2.434,2.391-2.406Zm4.928,0-2.421,2.434-2.42-2.434,2.42-2.406Z" transform="translate(13.3 12.987)" fill="#1a1818"/>
    <path id="Path_184" data-name="Path 184" d="M262.914,222.937v13.671a4.1,4.1,0,0,0,.5,2.339,2.294,2.294,0,0,0,1.95.682h.352v3.945h-.352a5.98,5.98,0,0,1-4.671-1.656,7.339,7.339,0,0,1-1.488-5.032V222.937Z" transform="translate(14.793 12.723)" fill="#1a1818"/>
    <path id="Path_185" data-name="Path 185" d="M271.98,231.311a21.014,21.014,0,0,1,1.907,1.415,11.364,11.364,0,0,1,1.511,1.518,6.355,6.355,0,0,1,1,1.687,5.208,5.208,0,0,1,.352,1.922,4.845,4.845,0,0,1-3.894,5.229,17.2,17.2,0,0,1-4.451.505h-3.551v-3.945h3.536a19.378,19.378,0,0,0,2.691-.154,3.517,3.517,0,0,0,1.591-.55,1.345,1.345,0,0,0,.529-1.145,1.594,1.594,0,0,0-.469-1,8.423,8.423,0,0,0-1.233-1.13q-.763-.587-1.665-1.173t-1.79-1.159q-.886-.572-1.591-1.1a2.87,2.87,0,0,1-.887-1.086,3.116,3.116,0,0,1,.073-2.875,2.147,2.147,0,0,1,1.151-1.013l11.177-4.561v3.887l-8.17,3.315q1.143.72,2.185,1.408" transform="translate(15.115 12.709)" fill="#1a1818"/>
    <rect id="Rectangle_114" data-name="Rectangle 114" width="3.725" height="20.623" transform="translate(295.882 235.66)" fill="#1a1818"/>
    <path id="Path_186" data-name="Path 186" d="M293.831,242.809a3.675,3.675,0,0,1-1-.41,10.408,10.408,0,0,1-1.451,3.931,9.456,9.456,0,0,1-2.942,2.926,12.723,12.723,0,0,1-4.422,1.693l-1.35-3.608a14.926,14.926,0,0,0,3.689-1.283,5.77,5.77,0,0,0,2.311-2.1,6.19,6.19,0,0,0,.792-3.257,12.542,12.542,0,0,0-.389-2.926q-.389-1.606-.873-3.044l3.638-1.2.85,3.271a4.032,4.032,0,0,0,.785,1.62,1.864,1.864,0,0,0,1.5.609h.557v3.946h-.4a5.012,5.012,0,0,1-1.306-.162" transform="translate(16.132 13.327)" fill="#1a1818"/>
    <path id="Path_187" data-name="Path 187" d="M301.856,243.061a4.446,4.446,0,0,1-1.606-1.4,5.546,5.546,0,0,1-1.966,1.408,7.312,7.312,0,0,1-2.933.514h-1.026v-3.945h1.056a4.011,4.011,0,0,0,2.449-.609,2.615,2.615,0,0,0,.793-2.193c0-.155-.011-.391-.03-.7s-.042-.664-.067-1.056-.051-.772-.08-1.144l3.432-.425.308,3.725a3.4,3.4,0,0,0,.3,1.225,2.057,2.057,0,0,0,.734.866,2.1,2.1,0,0,0,1.18.315,2.144,2.144,0,0,0,1.834-.726,3.42,3.42,0,0,0,.542-2.076c0-.146-.006-.378-.021-.7s-.037-.671-.067-1.063-.058-.772-.088-1.144l3.432-.425.308,3.725a4.273,4.273,0,0,0,.249,1.188,1.963,1.963,0,0,0,.624.887,1.688,1.688,0,0,0,1.078.331,1.358,1.358,0,0,0,.982-.352,2.007,2.007,0,0,0,.529-.954,5.058,5.058,0,0,0,.162-1.305,12.143,12.143,0,0,0-.249-2.281q-.25-1.283-.529-2.4l3.55-.939a22.464,22.464,0,0,1,.542,2.618,18.085,18.085,0,0,1,.191,2.618,11.74,11.74,0,0,1-.484,3.454,5.22,5.22,0,0,1-1.6,2.523,4.624,4.624,0,0,1-3.051.96,4.369,4.369,0,0,1-2.273-.55,4.949,4.949,0,0,1-1.526-1.4,5.883,5.883,0,0,1-1.833,1.415,5.136,5.136,0,0,1-2.332.535,5.387,5.387,0,0,1-2.516-.52m5.537-14.221-2.288,2.289-2.289-2.289,2.289-2.289Zm2.552-3.74-2.288,2.287-2.289-2.287,2.289-2.289Zm2.553,3.74-2.289,2.289-2.288-2.289,2.288-2.289Z" transform="translate(16.797 12.716)" fill="#1a1818"/>
    <path id="Path_188" data-name="Path 188" d="M518.831,354.189l.263,3.654a4.023,4.023,0,0,0,.852,2.384,2.767,2.767,0,0,0,2.261.914h.34v2.818h-.34a5.622,5.622,0,0,1-2.873-.659,4.88,4.88,0,0,1-1.85-2.113,6.83,6.83,0,0,1-2.013,1.6,9.394,9.394,0,0,1-2.818.89,24.722,24.722,0,0,1-4.026.279h-2.586a25.743,25.743,0,0,1-5.117-.449,11.049,11.049,0,0,1-3.654-1.363,5.955,5.955,0,0,1-2.2-2.331,7.2,7.2,0,0,1-.737-3.368,9.069,9.069,0,0,1,.241-2.09,12.9,12.9,0,0,1,.627-1.967l2.4.9a10.807,10.807,0,0,0-.41,1.456,7.2,7.2,0,0,0-.163,1.471,4.334,4.334,0,0,0,.573,2.3,4.17,4.17,0,0,0,1.7,1.517,9.206,9.206,0,0,0,2.811.845,25.832,25.832,0,0,0,3.933.263h2.586a18.729,18.729,0,0,0,4.189-.4,5.761,5.761,0,0,0,2.639-1.246,2.847,2.847,0,0,0,.913-2.191q0-.634-.047-1.409t-.077-1.393Zm-9.414,14.385-2.245,2.245-2.245-2.245,2.245-2.245Z" transform="translate(28.211 20.111)" fill="#fff"/>
    <path id="Path_189" data-name="Path 189" d="M524.91,343.017h2.648v14.741a6.755,6.755,0,0,0,.279,2.021,2.658,2.658,0,0,0,.96,1.393,3.087,3.087,0,0,0,1.873.5h.465v2.818H530.7a6.424,6.424,0,0,1-1.989-.271,3.846,3.846,0,0,1-1.41-.8,4.68,4.68,0,0,1-.983-1.285,8.918,8.918,0,0,1-1.031,1.285,3.306,3.306,0,0,1-1.315.8,6.994,6.994,0,0,1-2.175.271h-1.3v-2.818h1.27a3.193,3.193,0,0,0,1.974-.518,2.608,2.608,0,0,0,.922-1.418,7.643,7.643,0,0,0,.247-2.029Z" transform="translate(29.704 19.576)" fill="#fff"/>
    <path id="Path_190" data-name="Path 190" d="M533.238,360.708q.311-.473.6-.952V343.017h2.648V356.04a16.622,16.622,0,0,1,1.672-1.758,10.257,10.257,0,0,1,1.687-1.246,7.767,7.767,0,0,1,1.726-.752,6.3,6.3,0,0,1,1.774-.255,6.605,6.605,0,0,1,3.2.743,5.439,5.439,0,0,1,2.137,2.052,5.86,5.86,0,0,1,.765,3.012,5.966,5.966,0,0,1-.727,2.942,5.636,5.636,0,0,1-2.137,2.082,11.181,11.181,0,0,1-3.561,1.232,27.3,27.3,0,0,1-5,.4h-7.99v-2.818h2.6q.295-.5.6-.968m8.386-5.45a8.248,8.248,0,0,0-1.982,1.285,16.141,16.141,0,0,0-2.06,2.145,32.119,32.119,0,0,0-2.129,2.988h2.508a30.018,30.018,0,0,0,3.856-.217,10.989,10.989,0,0,0,2.725-.666,3.9,3.9,0,0,0,1.626-1.146,2.62,2.62,0,0,0,.542-1.657,3.051,3.051,0,0,0-3.206-3.159,4.641,4.641,0,0,0-1.88.426" transform="translate(30.248 19.576)" fill="#fff"/>
    <path id="Path_191" data-name="Path 191" d="M500.379,399.985a4.3,4.3,0,0,1-1.7-1.463,5.87,5.87,0,0,1-.89-2.183,8.788,8.788,0,0,1-2,1.377,5.193,5.193,0,0,1-2.292.48A5.791,5.791,0,0,1,489.779,397a3.977,3.977,0,0,1-1.5-3.3,5.149,5.149,0,0,1,.48-2.214,5.972,5.972,0,0,1,1.471-1.9,11.219,11.219,0,0,1,2.516-1.634,25.262,25.262,0,0,1,3.616-1.4l-.109-.743,2.478-.5,1.347,9.507a3.75,3.75,0,0,0,.891,2.114,2.68,2.68,0,0,0,2.052.75h.464V400.5h-.526a5.821,5.821,0,0,1-2.577-.519m-3.229-7.873c-.011-.145-.025-.3-.047-.465l-.387-2.586a26.038,26.038,0,0,0-2.593,1.076,10.639,10.639,0,0,0-1.79,1.069,3.95,3.95,0,0,0-1.029,1.1,2.317,2.317,0,0,0-.334,1.2,1.822,1.822,0,0,0,.7,1.549,3.067,3.067,0,0,0,1.89.526,4.361,4.361,0,0,0,1.742-.356,3.3,3.3,0,0,0,1.346-1.038,2.6,2.6,0,0,0,.52-1.626c0-.154-.005-.3-.016-.448m-1.8-11.118-2.168,2.183-2.152-2.183,2.152-2.152Zm5.141,0-2.168,2.183-2.152-2.183,2.152-2.152Z" transform="translate(27.866 21.62)" fill="#fff"/>
    <path id="Path_192" data-name="Path 192" d="M508.051,387.066q1.161.821,2.245,1.719a17.223,17.223,0,0,1,1.96,1.9,8.9,8.9,0,0,1,1.385,2.1,5.417,5.417,0,0,1,.511,2.308,5.138,5.138,0,0,1-.874,3.112,5.046,5.046,0,0,1-2.7,1.751,16.521,16.521,0,0,1-4.707.557h-3.747v-2.818h3.731a18.751,18.751,0,0,0,3.244-.225,3.275,3.275,0,0,0,1.8-.8,2.25,2.25,0,0,0,.566-1.634,3.113,3.113,0,0,0-.473-1.61,7.606,7.606,0,0,0-1.27-1.556,20.382,20.382,0,0,0-1.774-1.511q-.975-.742-2-1.478t-1.944-1.464a3.4,3.4,0,0,1-.774-.859,1.852,1.852,0,0,1-.279-.983,2.567,2.567,0,0,1,.387-1.309,2.157,2.157,0,0,1,1.085-.937l11.133-4.521v2.741l-9.74,3.948q1.085.758,2.245,1.579" transform="translate(28.656 21.618)" fill="#fff"/>
    <rect id="Rectangle_115" data-name="Rectangle 115" width="2.648" height="21.462" transform="translate(547.484 400.647)" fill="#fff"/>
    <path id="Path_193" data-name="Path 193" d="M530.866,399.5a4.355,4.355,0,0,1-1.123-.612,12.534,12.534,0,0,1-1.124,3.925,9.154,9.154,0,0,1-2.67,3.307,10.827,10.827,0,0,1-4.707,1.982l-.914-2.446a10.444,10.444,0,0,0,4.026-1.65,6.511,6.511,0,0,0,2.175-2.655,8.5,8.5,0,0,0,.673-3.422,14.308,14.308,0,0,0-.286-2.764,23.138,23.138,0,0,0-.8-2.949l2.57-.867.836,3.236a3.183,3.183,0,0,0,1.085,1.842,3.1,3.1,0,0,0,1.873.542h.573v2.818h-.4a4.849,4.849,0,0,1-1.787-.286" transform="translate(29.695 22.334)" fill="#fff"/>
    <path id="Path_194" data-name="Path 194" d="M539.685,399.831a4.277,4.277,0,0,1-1.54-1.758,4.853,4.853,0,0,1-1.935,1.758,7.382,7.382,0,0,1-3.3.612h-1.085v-2.818h1.115a4.277,4.277,0,0,0,2.972-.906,3.7,3.7,0,0,0,.992-2.857c0-.186-.005-.376-.016-.573s-.025-.439-.047-.727-.052-.651-.093-1.085l2.587-.324.247,3.159a4.857,4.857,0,0,0,.4,1.626,3,3,0,0,0,.951,1.223,2.484,2.484,0,0,0,1.534.465,2.612,2.612,0,0,0,2.346-1.054,4.782,4.782,0,0,0,.7-2.709q0-.279-.015-.58c-.011-.2-.026-.444-.046-.728s-.052-.643-.093-1.076l2.586-.324.248,3.159a5.672,5.672,0,0,0,.348,1.6,2.946,2.946,0,0,0,.852,1.238,2.11,2.11,0,0,0,1.416.481,1.764,1.764,0,0,0,1.27-.488,2.976,2.976,0,0,0,.766-1.316,6.285,6.285,0,0,0,.256-1.866,12.178,12.178,0,0,0-.17-1.921,21.055,21.055,0,0,0-.526-2.322l2.648-.712a15.089,15.089,0,0,1,.526,2.4,17.617,17.617,0,0,1,.154,2.308,11.58,11.58,0,0,1-.464,3.383,5.006,5.006,0,0,1-1.533,2.431,4.427,4.427,0,0,1-6.844-1.448,5.207,5.207,0,0,1-2.044,1.812,5.575,5.575,0,0,1-2.415.558,5.15,5.15,0,0,1-2.748-.612m5.66-13.9-2.09,2.091-2.091-2.091,2.091-2.091Zm2.648-3.917-2.09,2.09-2.091-2.09,2.091-2.091Zm2.648,3.917-2.091,2.091-2.09-2.091,2.09-2.091Z" transform="translate(30.351 21.682)" fill="#fff"/>
    <path id="Path_195" data-name="Path 195" d="M309.479,404.1a4.6,4.6,0,0,0,1.982-2.215,7.629,7.629,0,0,0,.566-2.934,13.6,13.6,0,0,0-.5-3.638q-.495-1.8-.929-2.943l2.648-1.068.945,2.926a5.53,5.53,0,0,0,.806,1.626,1.314,1.314,0,0,0,1.037.6,36.508,36.508,0,0,1,2.733-4.08,19.386,19.386,0,0,1,2.694-2.857,10.443,10.443,0,0,1,2.671-1.688,6.863,6.863,0,0,1,2.664-.557,6.277,6.277,0,0,1,3.128.766,5.639,5.639,0,0,1,2.136,2.082,5.761,5.761,0,0,1,.775,2.974,6.27,6.27,0,0,1-.31,1.889,5.715,5.715,0,0,1-.883,1.656q.293.078.705.148a9.937,9.937,0,0,0,1.036.108q.629.04,1.572.039h.434v2.818h-.419a11.061,11.061,0,0,1-3.252-.4,6.334,6.334,0,0,1-2.152-1.115,11.319,11.319,0,0,1-3.345,1.115,25.512,25.512,0,0,1-4.816.4h-.82a22.081,22.081,0,0,1-2.478-.124,15.918,15.918,0,0,1-1.913-.326,13.824,13.824,0,0,1-1.462-.433,10.52,10.52,0,0,1-.992,4.591,7.061,7.061,0,0,1-3.012,3.135,10.77,10.77,0,0,1-5.257,1.13,10.2,10.2,0,0,1-5.351-1.223,7.086,7.086,0,0,1-2.894-3.259,11.021,11.021,0,0,1-.891-4.467,17.369,17.369,0,0,1,.341-3.368,23.248,23.248,0,0,1,.928-3.368l2.463.99a29.38,29.38,0,0,0-.759,2.927,14.349,14.349,0,0,0-.31,2.911,7.6,7.6,0,0,0,.6,3.05,4.654,4.654,0,0,0,2.006,2.2,7.7,7.7,0,0,0,3.871.821,7.867,7.867,0,0,0,4-.844m15.546-13.58a8.286,8.286,0,0,0-1.982,1.285,16.065,16.065,0,0,0-2.058,2.145,31.709,31.709,0,0,0-2.13,2.988h2.493a30.019,30.019,0,0,0,3.856-.217,11.1,11.1,0,0,0,2.732-.666,3.885,3.885,0,0,0,1.634-1.146,2.619,2.619,0,0,0,.541-1.657,3.049,3.049,0,0,0-3.205-3.159,4.649,4.649,0,0,0-1.882.426" transform="translate(16.912 22.101)" fill="#1a1818"/>
    <path id="Path_196" data-name="Path 196" d="M345.781,399.754a20.335,20.335,0,0,1-3.67-.279,7.491,7.491,0,0,1-2.385-.806,4.018,4.018,0,0,1-1.378-1.27,5.73,5.73,0,0,1-2.021,1.789,6.655,6.655,0,0,1-2.98.565h-.6l.015-2.818h.589a3.348,3.348,0,0,0,2.919-1.076,4.848,4.848,0,0,0,.752-2.827c0-.495-.019-.954-.054-1.377s-.066-.877-.086-1.363l2.586-.31.233,3.623a6.624,6.624,0,0,0,.433,1.944q.357.905,1.1.906a36.364,36.364,0,0,1,2.734-4.08,19.275,19.275,0,0,1,2.694-2.857,10.459,10.459,0,0,1,2.663-1.688,6.8,6.8,0,0,1,2.655-.557,6.324,6.324,0,0,1,3.136.766,5.63,5.63,0,0,1,2.144,2.082,5.751,5.751,0,0,1,.775,2.974,6.269,6.269,0,0,1-.31,1.889,5.714,5.714,0,0,1-.883,1.656q.293.078.7.148a9.983,9.983,0,0,0,1.03.108q.62.04,1.564.039h.449v2.818h-.434a10.976,10.976,0,0,1-3.243-.4,6.336,6.336,0,0,1-2.145-1.115,11.318,11.318,0,0,1-3.345,1.115,25.512,25.512,0,0,1-4.816.4Zm4.436-9.237a8.246,8.246,0,0,0-1.982,1.285,16.432,16.432,0,0,0-2.068,2.145,30.966,30.966,0,0,0-2.137,2.988h2.509a30.011,30.011,0,0,0,3.855-.217,10.974,10.974,0,0,0,2.725-.666,3.887,3.887,0,0,0,1.626-1.146,2.62,2.62,0,0,0,.542-1.657,3.039,3.039,0,0,0-3.19-3.159,4.641,4.641,0,0,0-1.881.426" transform="translate(18.989 22.101)" fill="#1a1818"/>
    <path id="Path_197" data-name="Path 197" d="M367.218,397.309a2.415,2.415,0,0,0,1.58-.89,3.673,3.673,0,0,0,.5-2.145,11.188,11.188,0,0,1-1.541.356,10.755,10.755,0,0,1-1.68.124,6.112,6.112,0,0,1-3.94-1.083,3.936,3.936,0,0,1-1.325-3.237,8.821,8.821,0,0,1,.317-2.33,7.289,7.289,0,0,1,.96-2.137,5.063,5.063,0,0,1,1.618-1.556,4.321,4.321,0,0,1,2.276-.589,4.446,4.446,0,0,1,2.671.8,5.917,5.917,0,0,1,1.8,2.136,11.08,11.08,0,0,1,1.007,3.012,18.422,18.422,0,0,1,.317,3.423,13.813,13.813,0,0,1-.41,3.724,4.21,4.21,0,0,1-1.309,2.152,5.055,5.055,0,0,1-2.338,1,19.932,19.932,0,0,1-3.515.263h-5.667v-2.818h5.853a15.947,15.947,0,0,0,2.826-.2m-2.036-17.962-2.168,2.183-2.152-2.183,2.152-2.152Zm2.532,12.612q.7-.132,1.417-.333a14.763,14.763,0,0,0-.3-1.7,8.213,8.213,0,0,0-.574-1.642,3.663,3.663,0,0,0-.921-1.23,2.059,2.059,0,0,0-1.378-.473,1.976,1.976,0,0,0-1.541.643,3.86,3.86,0,0,0-.836,1.517,5.762,5.762,0,0,0-.255,1.588,1.394,1.394,0,0,0,.766,1.416,5.5,5.5,0,0,0,2.206.349,7.707,7.707,0,0,0,1.418-.132m2.609-12.612-2.168,2.183L366,379.347l2.152-2.152Z" transform="translate(20.462 21.526)" fill="#1a1818"/>
    <path id="Path_198" data-name="Path 198" d="M306.891,433.42a21.864,21.864,0,0,0,4.2-.31,4.456,4.456,0,0,0,2.137-.913,2.513,2.513,0,0,0,.774-1.51,14.781,14.781,0,0,0,.131-2.082V414.762h2.648v13.8a17.594,17.594,0,0,0,.17,2.663,2.639,2.639,0,0,0,.805,1.642,3.008,3.008,0,0,0,2.013.557h.573v2.818H319.8a5.877,5.877,0,0,1-2.988-.627,3.468,3.468,0,0,1-1.5-1.866,6.7,6.7,0,0,1-2.051,1.533,9.048,9.048,0,0,1-2.664.752,26.908,26.908,0,0,1-3.6.208h-2.555a25.707,25.707,0,0,1-5.11-.449,11.035,11.035,0,0,1-3.662-1.363,5.954,5.954,0,0,1-2.2-2.33,7.207,7.207,0,0,1-.736-3.368,9.082,9.082,0,0,1,.24-2.091,13.034,13.034,0,0,1,.627-1.966l2.4.9a10.8,10.8,0,0,0-.411,1.456,7.213,7.213,0,0,0-.162,1.471,4.328,4.328,0,0,0,.573,2.3,4.16,4.16,0,0,0,1.694,1.517,9.213,9.213,0,0,0,2.811.844,25.836,25.836,0,0,0,3.933.263Zm-3.631-6.464a13.26,13.26,0,0,0,1.37.069,6.616,6.616,0,0,0,1.61-.178q.714-.178.713-.673c0-.2-.145-.343-.433-.441a10.082,10.082,0,0,0-1.069-.288,9.912,9.912,0,0,1-1.27-.371,2.791,2.791,0,0,1-1.061-.673,1.658,1.658,0,0,1-.425-1.2,2.51,2.51,0,0,1,.557-1.641,4.4,4.4,0,0,1,1.417-1.123,7.981,7.981,0,0,1,1.75-.659,6.677,6.677,0,0,1,1.556-.217l.108,1.827a5.581,5.581,0,0,0-1.114.132,7.461,7.461,0,0,0-1.239.372,4.034,4.034,0,0,0-1,.549.857.857,0,0,0-.394.651c0,.175.144.308.433.4s.645.176,1.068.263a7.282,7.282,0,0,1,1.263.387,2.483,2.483,0,0,1,1.014.735,1.693,1.693,0,0,1,.31.535,2.093,2.093,0,0,1,.108.7,2.161,2.161,0,0,1-.557,1.588,3.021,3.021,0,0,1-1.463.79,8.042,8.042,0,0,1-1.944.224c-.4,0-.808-.017-1.215-.054s-.809-.086-1.2-.147v-1.719a10.882,10.882,0,0,0,1.108.163" transform="translate(16.706 23.67)" fill="#1a1818"/>
    <path id="Path_199" data-name="Path 199" d="M320.915,432.957a15.719,15.719,0,0,0,4.56-.642,27.565,27.565,0,0,0,4.227-1.681q2.1-1.039,4.4-2.245-.588-.217-1-.387c-.274-.114-.564-.24-.874-.379s-.718-.308-1.223-.5q-1.1-.45-1.935-.775t-1.441-.5a3.664,3.664,0,0,0-1.006-.179,3.369,3.369,0,0,0-1.819.55,5.712,5.712,0,0,0-1.479,1.323l-.417.526-2.37-1.162.233-.371a8.436,8.436,0,0,1,2.533-2.655,5.915,5.915,0,0,1,3.336-1,6.929,6.929,0,0,1,2.238.426,24.812,24.812,0,0,1,2.67,1.123q1.254.6,2.277,1.053t1.881.743a13.376,13.376,0,0,0,1.618.449,11.012,11.012,0,0,0,1.456.2v2.679a7.33,7.33,0,0,0-1.47.356,19.159,19.159,0,0,0-1.967.821q-1.145.541-2.786,1.409-1.982,1.053-3.832,1.873a22.7,22.7,0,0,1-3.764,1.294,17.031,17.031,0,0,1-4.1.471h-2.555v-2.818Z" transform="translate(18.166 24.133)" fill="#1a1818"/>
    <path id="Path_200" data-name="Path 200" d="M343.843,414.761v14.958a4.069,4.069,0,0,0,.8,2.943,3.4,3.4,0,0,0,2.423.758h.371v2.818h-.371a5.733,5.733,0,0,1-4.413-1.571q-1.456-1.571-1.456-4.963V414.761Z" transform="translate(19.472 23.67)" fill="#1a1818"/>
    <path id="Path_201" data-name="Path 201" d="M369.056,435.775h-.9a11.586,11.586,0,0,1-3.461-.433,4.1,4.1,0,0,1-2.067-1.355,5,5,0,0,1-.929-2.362q-2.044,1.115-4.1,2.059a27.024,27.024,0,0,1-4.166,1.518,16.393,16.393,0,0,1-4.32.573h-2.555v-2.818h2.6a15.689,15.689,0,0,0,4.561-.643,27.3,27.3,0,0,0,4.226-1.681q2.1-1.037,4.406-2.245c-.392-.144-.726-.273-1-.387s-.566-.239-.875-.378-.717-.308-1.223-.5q-1.1-.449-1.935-.774t-1.44-.5a3.713,3.713,0,0,0-1.006-.179,3.374,3.374,0,0,0-1.82.551,5.689,5.689,0,0,0-1.478,1.323l-.419.526-2.369-1.162.233-.371a8.421,8.421,0,0,1,2.532-2.655,5.915,5.915,0,0,1,3.336-1,6.9,6.9,0,0,1,2.238.426,24.792,24.792,0,0,1,2.671,1.122q1.254.6,2.276,1.054t1.88.743a13.126,13.126,0,0,0,1.619.448,10.794,10.794,0,0,0,1.456.2v2.679a8.419,8.419,0,0,0-1.487.294,11.9,11.9,0,0,0-1.827.712,1.982,1.982,0,0,0,.526,1.387,3.008,3.008,0,0,0,1.509.774,10.74,10.74,0,0,0,2.47.24h.836Zm-9.663,4.614-2.245,2.245-2.245-2.245,2.245-2.245Z" transform="translate(19.778 24.133)" fill="#1a1818"/>
    <path id="Path_202" data-name="Path 202" d="M367.3,436.078V433.26h1.673a3.386,3.386,0,0,0,2.778-.906,3.892,3.892,0,0,0,.705-2.455,16.771,16.771,0,0,0-.17-2.152,18.276,18.276,0,0,0-.526-2.555l2.648-.712a14.575,14.575,0,0,1,.526,2.632,23.393,23.393,0,0,1,.155,2.54,10.085,10.085,0,0,1-.5,3.306,4.322,4.322,0,0,1-1.82,2.283,7.035,7.035,0,0,1-3.762.836Zm6.628-16.259-2.245,2.245-2.245-2.245,2.245-2.245Z" transform="translate(20.961 23.831)" fill="#1a1818"/>
    <path id="Path_203" data-name="Path 203" d="M155.532,373.676a21.952,21.952,0,0,0,4.2-.31,4.466,4.466,0,0,0,2.137-.914,2.51,2.51,0,0,0,.774-1.509,14.786,14.786,0,0,0,.131-2.082V355.017h2.648v13.8a17,17,0,0,1-.294,3.36,4.61,4.61,0,0,1-1.255,2.4,6.116,6.116,0,0,1-2.926,1.441,23.384,23.384,0,0,1-5.312.48h-2.555a25.782,25.782,0,0,1-5.11-.449,11.057,11.057,0,0,1-3.662-1.363,5.956,5.956,0,0,1-2.2-2.331,7.2,7.2,0,0,1-.736-3.368,9.066,9.066,0,0,1,.24-2.09,13.011,13.011,0,0,1,.627-1.967l2.4.9a10.814,10.814,0,0,0-.411,1.456,7.2,7.2,0,0,0-.162,1.471,4.324,4.324,0,0,0,.573,2.3,4.16,4.16,0,0,0,1.694,1.517,9.215,9.215,0,0,0,2.811.845,25.837,25.837,0,0,0,3.933.263Zm-3.631-6.465a13.266,13.266,0,0,0,1.37.07,6.617,6.617,0,0,0,1.61-.179q.714-.178.712-.673,0-.293-.433-.441a10.1,10.1,0,0,0-1.069-.286,9.757,9.757,0,0,1-1.27-.372,2.777,2.777,0,0,1-1.061-.673,1.657,1.657,0,0,1-.425-1.2,2.512,2.512,0,0,1,.557-1.642,4.4,4.4,0,0,1,1.416-1.123,7.98,7.98,0,0,1,1.751-.659,6.734,6.734,0,0,1,1.556-.217l.108,1.828a5.573,5.573,0,0,0-1.114.131,7.454,7.454,0,0,0-1.239.372,4.033,4.033,0,0,0-1,.55.854.854,0,0,0-.394.65c0,.175.144.308.433.4s.645.175,1.068.263a7.28,7.28,0,0,1,1.263.387,2.476,2.476,0,0,1,1.014.736,1.677,1.677,0,0,1,.31.534,2.1,2.1,0,0,1,.108.705,2.16,2.16,0,0,1-.557,1.587,3.021,3.021,0,0,1-1.463.79,8.043,8.043,0,0,1-1.944.225q-.6,0-1.215-.055t-1.2-.147v-1.719a10.589,10.589,0,0,0,1.108.163" transform="translate(8.068 20.261)" fill="#1a1818"/>
    <path id="Path_204" data-name="Path 204" d="M164.026,381.658a10.451,10.451,0,0,0,4.026-1.649,6.526,6.526,0,0,0,2.175-2.655,8.507,8.507,0,0,0,.673-3.423,14.219,14.219,0,0,0-.288-2.763,22.981,22.981,0,0,0-.8-2.95l2.57-.867a20.7,20.7,0,0,1,.828,3.1,16.541,16.541,0,0,1,.288,3.019,12.467,12.467,0,0,1-.907,4.793,9.334,9.334,0,0,1-2.8,3.747,10.837,10.837,0,0,1-4.855,2.113Z" transform="translate(9.361 20.964)" fill="#1a1818"/>
    <path id="Path_205" data-name="Path 205" d="M179.345,355.017v14.958a4.069,4.069,0,0,0,.8,2.943,3.4,3.4,0,0,0,2.423.758h.371v2.818h-.371a5.733,5.733,0,0,1-4.413-1.571q-1.456-1.573-1.456-4.963V355.017Z" transform="translate(10.084 20.261)" fill="#1a1818"/>
    <path id="Path_206" data-name="Path 206" d="M182.758,375.862h-.743v-2.818h.743Zm7.169-9.77.247,3.623a4.534,4.534,0,0,0,.433,1.742,2.811,2.811,0,0,0,1.045,1.169,3.1,3.1,0,0,0,1.665.419h.31v2.818h-.341a6.288,6.288,0,0,1-1.982-.279,4.009,4.009,0,0,1-1.424-.806,4.828,4.828,0,0,1-1.006-1.284,4.934,4.934,0,0,1-2.2,1.8,7.289,7.289,0,0,1-2.85.573H182.37v-2.818h1.456a3.421,3.421,0,0,0,2.81-1.038,4.41,4.41,0,0,0,.845-2.865q0-.742-.039-1.409t-.1-1.331Zm-2.478,14.385-2.245,2.245-2.245-2.245,2.245-2.245Z" transform="translate(10.387 20.893)" fill="#1a1818"/>
    <path id="Path_207" data-name="Path 207" d="M195.059,373.6a15.732,15.732,0,0,0,4.561-.643,27.478,27.478,0,0,0,4.226-1.68q2.1-1.039,4.406-2.245-.588-.217-1-.388t-.874-.378q-.465-.209-1.223-.5-1.1-.449-1.936-.774t-1.44-.5a3.711,3.711,0,0,0-1.006-.178,3.372,3.372,0,0,0-1.82.55,5.691,5.691,0,0,0-1.479,1.323l-.418.526-2.369-1.162.232-.371a8.435,8.435,0,0,1,2.533-2.655,5.915,5.915,0,0,1,3.336-1,6.9,6.9,0,0,1,2.238.426,24.6,24.6,0,0,1,2.671,1.123q1.254.6,2.276,1.053t1.881.743a13.337,13.337,0,0,0,1.619.449,10.944,10.944,0,0,0,1.456.2V370.2a7.337,7.337,0,0,0-1.471.356,19.067,19.067,0,0,0-1.966.821q-1.146.541-2.788,1.409-1.982,1.053-3.832,1.873a22.712,22.712,0,0,1-3.764,1.293,17.028,17.028,0,0,1-4.1.472h-2.555V373.6Zm9.26-15.066-2.245,2.245-2.245-2.245,2.245-2.245Z" transform="translate(10.983 20.333)" fill="#1a1818"/>
    <path id="Path_208" data-name="Path 208" d="M214.415,353.472a2.461,2.461,0,0,1-.371-1.44,2.839,2.839,0,0,1,.921-2.183,3,3,0,0,1,2.1-.852,3.955,3.955,0,0,1,.984.116,3.273,3.273,0,0,1,.89.38l.015,1.533a2.9,2.9,0,0,0-.9-.31,5.323,5.323,0,0,0-.775-.062,2.08,2.08,0,0,0-1.231.4,1.354,1.354,0,0,0-.564,1.177,1.381,1.381,0,0,0,.488.938,1.518,1.518,0,0,0,1.339.333.182.182,0,0,0,.069-.016c.026-.011.055-.021.086-.031l2.044-.744.217,1.534-5.9,2.338-.217-1.518,1.7-.666a4.275,4.275,0,0,1-.9-.929m3.67,23.351h-2.648V357.529h2.648Z" transform="translate(12.191 19.917)" fill="#1a1818"/>
    <path id="Path_209" data-name="Path 209" d="M43.671,257.973a3.416,3.416,0,0,0,.983,1.115,2.144,2.144,0,0,0,1.262.41h.4v2.818h-.4a4.613,4.613,0,0,1-1.865-.4,3.4,3.4,0,0,1-1.526-1.363,3.51,3.51,0,0,1-1.5,1.5,5.341,5.341,0,0,1-2.493.512,6.131,6.131,0,0,1-1.85-.295,16.958,16.958,0,0,1-1.8-.673q-.861-.379-1.572-.673a3.257,3.257,0,0,0-1.192-.294,1.676,1.676,0,0,0-1.054.31,1.963,1.963,0,0,0-.618,1.014,8.587,8.587,0,0,0-.295,1.9q-.078,1.2-.077,2.981c0,.7.008,1.329.022,1.881s.042,1.1.079,1.634.074,1.146.115,1.827H27.63q-.078-1.424-.125-2.67t-.047-2.517q0-1.735.1-3.3a12.63,12.63,0,0,1,.481-2.826,5,5,0,0,1,1.184-2.091,4.025,4.025,0,0,1,2.215-1.092,18.138,18.138,0,0,1,.992-2.709,8.78,8.78,0,0,1,1.284-2.036,4.977,4.977,0,0,1,1.672-1.285,5.038,5.038,0,0,1,2.153-.442,5.226,5.226,0,0,1,2.616.674,5.881,5.881,0,0,1,1.989,1.842,6.087,6.087,0,0,1,1,2.655,4.386,4.386,0,0,0,.526,1.587M40.25,255.79a3.3,3.3,0,0,0-1.077-1.339,2.616,2.616,0,0,0-1.571-.5,2.335,2.335,0,0,0-1.278.349,3.324,3.324,0,0,0-.96.944,7.456,7.456,0,0,0-.727,1.355,16.366,16.366,0,0,0-.566,1.579q1.131.5,2,.852t1.494.55a3.612,3.612,0,0,0,1,.193,2.012,2.012,0,0,0,1.549-.566,2.124,2.124,0,0,0,.526-1.509,4.537,4.537,0,0,0-.387-1.912" transform="translate(1.567 14.337)" fill="#1a1818"/>
    <path id="Path_210" data-name="Path 210" d="M57.8,262.8a20.328,20.328,0,0,1-3.669-.278,7.473,7.473,0,0,1-2.385-.806,4.009,4.009,0,0,1-1.378-1.27,5.751,5.751,0,0,1-2.021,1.789,6.675,6.675,0,0,1-2.981.564h-.6l.016-2.818h.588q2.169,0,2.919-1.076a4.834,4.834,0,0,0,.752-2.826q0-.744-.054-1.378c-.037-.423-.064-.877-.086-1.363l2.587-.31.231,3.624a6.618,6.618,0,0,0,.434,1.943q.355.907,1.1.906a36.467,36.467,0,0,1,2.733-4.08,19.374,19.374,0,0,1,2.694-2.856,10.465,10.465,0,0,1,2.664-1.688,6.8,6.8,0,0,1,2.655-.557,6.308,6.308,0,0,1,3.135.766,5.624,5.624,0,0,1,2.145,2.082,5.757,5.757,0,0,1,.774,2.974,6.242,6.242,0,0,1-.31,1.889,5.7,5.7,0,0,1-.883,1.656c.2.052.43.1.7.147a10.243,10.243,0,0,0,1.031.109c.412.025.934.038,1.563.038H72.6V262.8h-.433a11.011,11.011,0,0,1-3.243-.4,6.341,6.341,0,0,1-2.146-1.115,11.308,11.308,0,0,1-3.345,1.115,25.6,25.6,0,0,1-4.815.4Zm4.437-9.236a8.207,8.207,0,0,0-1.982,1.284,16.568,16.568,0,0,0-2.068,2.145,31.086,31.086,0,0,0-2.136,2.988h2.508a29.813,29.813,0,0,0,3.855-.217,10.89,10.89,0,0,0,2.726-.666,3.884,3.884,0,0,0,1.626-1.146,2.62,2.62,0,0,0,.541-1.656,3.037,3.037,0,0,0-3.189-3.159,4.649,4.649,0,0,0-1.882.426m3.368-8.54-2.245,2.245-2.245-2.245,2.245-2.245Z" transform="translate(2.554 13.855)" fill="#1a1818"/>
    <path id="Path_211" data-name="Path 211" d="M70.555,262.717V259.9h1.673a3.39,3.39,0,0,0,2.778-.906,3.892,3.892,0,0,0,.705-2.454,16.772,16.772,0,0,0-.17-2.152,18.27,18.27,0,0,0-.526-2.555l2.648-.712a14.573,14.573,0,0,1,.526,2.632,23.394,23.394,0,0,1,.155,2.54,10.078,10.078,0,0,1-.5,3.305,4.324,4.324,0,0,1-1.82,2.284,7.035,7.035,0,0,1-3.762.836Zm6.628-16.259L74.938,248.7l-2.245-2.245,2.245-2.245Z" transform="translate(4.027 13.937)" fill="#1a1818"/>
    <rect id="Rectangle_116" data-name="Rectangle 116" width="2.648" height="21.462" transform="translate(86.257 255.176)" fill="#1a1818"/>
    <path id="Path_212" data-name="Path 212" d="M22.942,298.368a4.3,4.3,0,0,1-1.7-1.463,5.871,5.871,0,0,1-.89-2.183,8.79,8.79,0,0,1-2,1.377,5.194,5.194,0,0,1-2.292.48,5.791,5.791,0,0,1-3.717-1.192,3.977,3.977,0,0,1-1.5-3.3,5.148,5.148,0,0,1,.48-2.214,5.97,5.97,0,0,1,1.471-1.9,11.216,11.216,0,0,1,2.516-1.634,25.25,25.25,0,0,1,3.616-1.4l-.109-.743,2.478-.5,1.347,9.507a3.749,3.749,0,0,0,.891,2.114,2.68,2.68,0,0,0,2.052.75h.464v2.818H25.52a5.821,5.821,0,0,1-2.577-.519m-3.229-7.873c-.011-.145-.025-.3-.047-.465l-.387-2.586a26.06,26.06,0,0,0-2.593,1.076,10.648,10.648,0,0,0-1.79,1.069,3.951,3.951,0,0,0-1.029,1.1,2.317,2.317,0,0,0-.334,1.2,1.822,1.822,0,0,0,.7,1.549,3.067,3.067,0,0,0,1.89.526,4.36,4.36,0,0,0,1.742-.356,3.3,3.3,0,0,0,1.346-1.038,2.6,2.6,0,0,0,.52-1.626c0-.154-.005-.3-.016-.448m-1.8-11.118-2.168,2.183L13.6,279.376l2.152-2.152Zm5.141,0-2.168,2.183-2.152-2.183,2.152-2.152Z" transform="translate(0.619 15.821)" fill="#1a1818"/>
    <path id="Path_213" data-name="Path 213" d="M25.383,298.245H24.64v-2.818h.743Zm7.169-9.77L32.8,292.1a4.534,4.534,0,0,0,.433,1.742,2.81,2.81,0,0,0,1.045,1.169,3.1,3.1,0,0,0,1.665.419h.31v2.818h-.341a6.287,6.287,0,0,1-1.982-.279,4.008,4.008,0,0,1-1.424-.805,4.828,4.828,0,0,1-1.006-1.284,4.935,4.935,0,0,1-2.2,1.8,7.289,7.289,0,0,1-2.85.573H25v-2.818h1.456a3.422,3.422,0,0,0,2.81-1.038,4.41,4.41,0,0,0,.845-2.865q0-.742-.039-1.409t-.1-1.331ZM30.074,302.86,27.829,305.1l-2.245-2.245,2.245-2.245Z" transform="translate(1.406 16.463)" fill="#1a1818"/>
    <path id="Path_214" data-name="Path 214" d="M42.941,297.724a4.285,4.285,0,0,1-1.54-1.758,4.847,4.847,0,0,1-1.935,1.758,7.381,7.381,0,0,1-3.3.612H35.083v-2.818H36.2a4.281,4.281,0,0,0,2.974-.906,3.7,3.7,0,0,0,.99-2.857c0-.186-.005-.376-.016-.573s-.025-.439-.047-.727-.051-.651-.092-1.085l2.586-.325.247,3.159a4.854,4.854,0,0,0,.4,1.626,3,3,0,0,0,.952,1.223,2.481,2.481,0,0,0,1.533.465,2.617,2.617,0,0,0,2.347-1.053,4.8,4.8,0,0,0,.7-2.71q0-.279-.016-.58c-.011-.2-.025-.444-.047-.728s-.052-.643-.093-1.076l2.586-.325.248,3.159a5.671,5.671,0,0,0,.348,1.6,2.949,2.949,0,0,0,.853,1.238,2.105,2.105,0,0,0,1.415.481,1.769,1.769,0,0,0,1.271-.488,2.98,2.98,0,0,0,.765-1.316,6.29,6.29,0,0,0,.256-1.866,12.03,12.03,0,0,0-.17-1.92,21,21,0,0,0-.526-2.323l2.648-.712a15.086,15.086,0,0,1,.526,2.4,17.619,17.619,0,0,1,.155,2.308,11.58,11.58,0,0,1-.465,3.383,5.007,5.007,0,0,1-1.533,2.431,4.428,4.428,0,0,1-6.845-1.448,5.21,5.21,0,0,1-2.043,1.812,5.578,5.578,0,0,1-2.415.558,5.153,5.153,0,0,1-2.749-.612" transform="translate(2.002 16.373)" fill="#1a1818"/>
    <path id="Path_215" data-name="Path 215" d="M64.025,277.4v14.958a4.069,4.069,0,0,0,.8,2.943,3.4,3.4,0,0,0,2.423.758h.371v2.818h-.371a5.733,5.733,0,0,1-4.413-1.571q-1.456-1.573-1.456-4.963V277.4Z" transform="translate(3.503 15.831)" fill="#1a1818"/>
    <path id="Path_216" data-name="Path 216" d="M74.295,288.871l.247,3.624a4.539,4.539,0,0,0,.433,1.742,2.823,2.823,0,0,0,1.045,1.169,3.111,3.111,0,0,0,1.665.418H78v2.818h-.34a6.278,6.278,0,0,1-1.982-.279,3.987,3.987,0,0,1-1.425-.8,4.854,4.854,0,0,1-1.006-1.285,4.922,4.922,0,0,1-2.2,1.8,7.288,7.288,0,0,1-2.85.573H66.739v-2.818h1.455A3.427,3.427,0,0,0,71,294.786a4.42,4.42,0,0,0,.844-2.865q0-.744-.039-1.409t-.1-1.332Zm-.047-5.11L72,286.006l-2.245-2.245L72,281.516Z" transform="translate(3.809 16.066)" fill="#1a1818"/>
    <path id="Path_217" data-name="Path 217" d="M76.846,298.316V295.5h.573a2.634,2.634,0,0,0,1.749-.6,5.861,5.861,0,0,0,1.27-1.54q.558-.945,1.107-2.005a16.051,16.051,0,0,1,1.231-2.005,5.706,5.706,0,0,1,1.649-1.541,4.481,4.481,0,0,1,2.392-.6,5.024,5.024,0,0,1,4.583,2.523,8.453,8.453,0,0,1,1.006,2.632,6.013,6.013,0,0,0,.619,1.711,2.978,2.978,0,0,0,.961,1.061,2.229,2.229,0,0,0,1.223.355h.4v2.818h-.419a4.81,4.81,0,0,1-1.935-.41,3.443,3.443,0,0,1-1.533-1.309,5.054,5.054,0,0,1-1.61,1.51,4.879,4.879,0,0,1-2.494.564,6.2,6.2,0,0,1-1.951-.3,7.19,7.19,0,0,1-1.8-.906,14.912,14.912,0,0,1-1.827-1.5,12.574,12.574,0,0,1-1.285,1.285,4.4,4.4,0,0,1-1.378.8,5.667,5.667,0,0,1-1.889.271Zm8.625-7.842a5.387,5.387,0,0,0-1.146,1.339,15.134,15.134,0,0,0-.913,1.7,12.084,12.084,0,0,0,1.022.945,8.978,8.978,0,0,0,.99.712,5.953,5.953,0,0,0,1.185.573,3.112,3.112,0,0,0,.983.186,2.294,2.294,0,0,0,1.726-.589,2.389,2.389,0,0,0,.566-1.719,4.194,4.194,0,0,0-.8-2.641,2.638,2.638,0,0,0-2.207-1.03,2.175,2.175,0,0,0-1.409.519" transform="translate(4.386 16.391)" fill="#1a1818"/>
    <path id="Path_218" data-name="Path 218" d="M95.313,296.058a2.693,2.693,0,0,0,2.5-1.053,4.965,4.965,0,0,0,.644-2.632V277.4H101.1v14.958a7.347,7.347,0,0,1-1.4,4.87,5.467,5.467,0,0,1-4.4,1.649H94.043v-2.818Z" transform="translate(5.367 15.831)" fill="#1a1818"/>
    <rect id="Rectangle_117" data-name="Rectangle 117" width="2.648" height="21.462" transform="translate(62.919 107.277)" fill="#1a1818"/>
    <path id="Path_219" data-name="Path 219" d="M74.444,115.943a8.592,8.592,0,0,0-.425-1.2l-2.741-6.209,2.415-1.131,3.515,8.269a22.328,22.328,0,0,0,1.247,2.57,3.643,3.643,0,0,0,1.053,1.231,2.14,2.14,0,0,0,1.184.333h.65v2.818h-.65a5.626,5.626,0,0,1-1.989-.295,3.547,3.547,0,0,1-1.325-.882,9.976,9.976,0,0,1-1.13-1.487,6.334,6.334,0,0,1-1.711,1.5,7.45,7.45,0,0,1-2.275.867,14.161,14.161,0,0,1-2.966.279,17.174,17.174,0,0,1-1.951-.1,14.091,14.091,0,0,1-1.642-.286v-2.8a17.872,17.872,0,0,0,1.759.317,13.092,13.092,0,0,0,1.6.1,12.383,12.383,0,0,0,3.106-.326,3.88,3.88,0,0,0,1.841-.96,2.165,2.165,0,0,0,.612-1.563,4.126,4.126,0,0,0-.179-1.045" transform="translate(3.75 6.129)" fill="#1a1818"/>
    <path id="Path_220" data-name="Path 220" d="M80.641,122.429H79.9v-2.818h.743Zm-.388,0v-2.818h1.672a3.391,3.391,0,0,0,2.779-.906,3.892,3.892,0,0,0,.705-2.454,16.757,16.757,0,0,0-.17-2.152,18.27,18.27,0,0,0-.526-2.555l2.648-.712a14.575,14.575,0,0,1,.526,2.632,23.376,23.376,0,0,1,.154,2.54,10.079,10.079,0,0,1-.5,3.305,4.328,4.328,0,0,1-1.82,2.284,7.036,7.036,0,0,1-3.762.836Zm5.079,4.614-2.245,2.245-2.245-2.245,2.245-2.245Z" transform="translate(4.56 6.325)" fill="#1a1818"/>
    <path id="Path_221" data-name="Path 221" d="M90.356,99.94a2.461,2.461,0,0,1-.372-1.44,2.841,2.841,0,0,1,.921-2.184,3.009,3.009,0,0,1,2.1-.851,4,4,0,0,1,.983.115,3.278,3.278,0,0,1,.89.379l.016,1.534a2.889,2.889,0,0,0-.9-.31,5.314,5.314,0,0,0-.774-.062,2.077,2.077,0,0,0-1.231.4,1.352,1.352,0,0,0-.564,1.177,1.374,1.374,0,0,0,.488.937,1.515,1.515,0,0,0,1.338.333.207.207,0,0,0,.07-.015q.038-.016.086-.032l2.043-.743.217,1.533-5.9,2.338-.217-1.517,1.7-.666a4.246,4.246,0,0,1-.9-.929m3.67,23.351H91.379V104h2.648Z" transform="translate(5.111 5.448)" fill="#1a1818"/>
    <path id="Path_222" data-name="Path 222" d="M52.375,158.452a4.282,4.282,0,0,1-1.7-1.463,5.867,5.867,0,0,1-.891-2.182,8.818,8.818,0,0,1-2,1.376,5.18,5.18,0,0,1-2.292.481,5.794,5.794,0,0,1-3.716-1.192,3.98,3.98,0,0,1-1.5-3.3,5.141,5.141,0,0,1,.481-2.214,5.974,5.974,0,0,1,1.47-1.9,11.236,11.236,0,0,1,2.517-1.633,25.232,25.232,0,0,1,3.615-1.4l-.108-.742,2.477-.5,1.347,9.508a3.753,3.753,0,0,0,.892,2.114,2.677,2.677,0,0,0,2.051.751h.465v2.817h-.526a5.815,5.815,0,0,1-2.577-.519m-3.229-7.873c-.012-.144-.026-.3-.047-.465l-.387-2.585a26.05,26.05,0,0,0-2.593,1.076,10.49,10.49,0,0,0-1.79,1.069,3.949,3.949,0,0,0-1.029,1.1,2.3,2.3,0,0,0-.335,1.2,1.825,1.825,0,0,0,.7,1.549,3.07,3.07,0,0,0,1.891.526,4.344,4.344,0,0,0,1.742-.357,3.293,3.293,0,0,0,1.345-1.037,2.6,2.6,0,0,0,.52-1.626c0-.154-.005-.3-.015-.449m-1.8-11.118-2.167,2.183-2.152-2.183,2.152-2.151Zm5.142,0-2.169,2.183-2.152-2.183,2.152-2.151Z" transform="translate(2.298 7.836)" fill="#1a1818"/>
    <path id="Path_223" data-name="Path 223" d="M54.815,158.33h-.743v-2.818h.743Zm7.169-9.77.247,3.623a4.534,4.534,0,0,0,.433,1.742,2.81,2.81,0,0,0,1.045,1.169,3.1,3.1,0,0,0,1.665.419h.31v2.818h-.341a6.288,6.288,0,0,1-1.982-.279,4.009,4.009,0,0,1-1.424-.805,4.828,4.828,0,0,1-1.006-1.284,4.935,4.935,0,0,1-2.2,1.8,7.289,7.289,0,0,1-2.85.573H54.427v-2.818h1.456a3.421,3.421,0,0,0,2.81-1.038,4.41,4.41,0,0,0,.845-2.865q0-.742-.039-1.409t-.1-1.331Zm-2.478,14.385-2.245,2.245-2.245-2.245,2.245-2.245Z" transform="translate(3.086 8.478)" fill="#1a1818"/>
    <path id="Path_224" data-name="Path 224" d="M72.374,157.809a4.285,4.285,0,0,1-1.54-1.758,4.847,4.847,0,0,1-1.935,1.758,7.381,7.381,0,0,1-3.3.612H64.516V155.6h1.115A4.281,4.281,0,0,0,68.6,154.7a3.7,3.7,0,0,0,.99-2.857c0-.186-.005-.376-.016-.573s-.025-.439-.047-.727-.051-.651-.092-1.085l2.586-.325.247,3.159a4.854,4.854,0,0,0,.4,1.626,3,3,0,0,0,.952,1.223,2.481,2.481,0,0,0,1.533.465A2.617,2.617,0,0,0,77.5,154.55a4.8,4.8,0,0,0,.7-2.71q0-.279-.016-.58c-.011-.2-.025-.444-.047-.728s-.052-.643-.093-1.076l2.586-.325.248,3.159a5.671,5.671,0,0,0,.348,1.6,2.948,2.948,0,0,0,.853,1.238,2.105,2.105,0,0,0,1.415.481,1.769,1.769,0,0,0,1.271-.488,2.98,2.98,0,0,0,.765-1.316,6.29,6.29,0,0,0,.256-1.866,12.031,12.031,0,0,0-.17-1.92,21.007,21.007,0,0,0-.526-2.323l2.648-.712a15.085,15.085,0,0,1,.526,2.4,17.618,17.618,0,0,1,.155,2.308,11.58,11.58,0,0,1-.465,3.383,5.007,5.007,0,0,1-1.533,2.431,4.428,4.428,0,0,1-6.845-1.448,5.21,5.21,0,0,1-2.043,1.812,5.578,5.578,0,0,1-2.415.558,5.153,5.153,0,0,1-2.749-.612" transform="translate(3.682 8.388)" fill="#1a1818"/>
    <path id="Path_225" data-name="Path 225" d="M93.458,137.485v14.958a4.069,4.069,0,0,0,.8,2.943,3.4,3.4,0,0,0,2.423.758h.371v2.818h-.371a5.733,5.733,0,0,1-4.413-1.571q-1.456-1.573-1.456-4.963V137.485Z" transform="translate(5.182 7.846)" fill="#1a1818"/>
    <path id="Path_226" data-name="Path 226" d="M103.728,148.956l.247,3.624a4.539,4.539,0,0,0,.433,1.742,2.823,2.823,0,0,0,1.045,1.169,3.111,3.111,0,0,0,1.665.418h.31v2.818h-.34a6.278,6.278,0,0,1-1.982-.279,3.986,3.986,0,0,1-1.425-.8,4.854,4.854,0,0,1-1.006-1.285,4.922,4.922,0,0,1-2.2,1.8,7.288,7.288,0,0,1-2.85.573H96.172v-2.818h1.455a3.427,3.427,0,0,0,2.811-1.037,4.42,4.42,0,0,0,.844-2.865q0-.744-.039-1.409t-.1-1.332Zm-.047-5.11-2.245,2.245-2.245-2.245,2.245-2.245Z" transform="translate(5.488 8.081)" fill="#1a1818"/>
    <path id="Path_227" data-name="Path 227" d="M115.1,158.456a7.19,7.19,0,0,1-1.8-.906,14.919,14.919,0,0,1-1.827-1.5,12.578,12.578,0,0,1-1.285,1.285,4.4,4.4,0,0,1-1.378.8,5.667,5.667,0,0,1-1.889.271h-.65v-2.818h.573a2.634,2.634,0,0,0,1.749-.6,5.861,5.861,0,0,0,1.27-1.54q.558-.945,1.107-2.005a16.053,16.053,0,0,1,1.231-2.005,5.706,5.706,0,0,1,1.649-1.541,4.481,4.481,0,0,1,2.392-.6,5.381,5.381,0,0,1,3,.828,5.605,5.605,0,0,1,1.982,2.222,6.794,6.794,0,0,1,.705,3.113,6.5,6.5,0,0,1-.573,2.856,4.078,4.078,0,0,1-1.664,1.812,5.215,5.215,0,0,1-2.641.627,6.2,6.2,0,0,1-1.951-.3m-.2-7.9a5.387,5.387,0,0,0-1.146,1.339,15.131,15.131,0,0,0-.913,1.7,11.618,11.618,0,0,0,.976.906,9.285,9.285,0,0,0,.944.689,5.86,5.86,0,0,0,1.23.619,3.207,3.207,0,0,0,1.031.2,2.294,2.294,0,0,0,1.726-.589,2.389,2.389,0,0,0,.566-1.719,4.194,4.194,0,0,0-.8-2.641,2.638,2.638,0,0,0-2.207-1.03,2.175,2.175,0,0,0-1.409.519" transform="translate(6.065 8.406)" fill="#1a1818"/>
    <path id="Path_228" data-name="Path 228" d="M256.607,39.931a3.416,3.416,0,0,0,.983,1.115,2.144,2.144,0,0,0,1.262.41h.4v2.818h-.4a4.612,4.612,0,0,1-1.865-.4,3.4,3.4,0,0,1-1.526-1.363,3.51,3.51,0,0,1-1.5,1.5,5.341,5.341,0,0,1-2.493.512,6.131,6.131,0,0,1-1.85-.295,16.954,16.954,0,0,1-1.8-.673q-.861-.379-1.572-.673a3.257,3.257,0,0,0-1.192-.294A1.677,1.677,0,0,0,244,42.9a1.963,1.963,0,0,0-.618,1.014,8.588,8.588,0,0,0-.295,1.9q-.078,1.2-.077,2.981,0,1.053.022,1.881c.017.553.042,1.1.079,1.634s.074,1.146.115,1.827h-2.663q-.078-1.424-.125-2.67t-.046-2.517q0-1.735.1-3.3a12.628,12.628,0,0,1,.481-2.826,5,5,0,0,1,1.184-2.091,4.025,4.025,0,0,1,2.215-1.092,18.135,18.135,0,0,1,.992-2.709,8.78,8.78,0,0,1,1.284-2.036,4.976,4.976,0,0,1,1.672-1.285,5.037,5.037,0,0,1,2.153-.442,5.226,5.226,0,0,1,2.616.674,5.881,5.881,0,0,1,1.989,1.842,6.087,6.087,0,0,1,1,2.655,4.387,4.387,0,0,0,.526,1.587m-3.422-2.183a3.3,3.3,0,0,0-1.077-1.339,2.616,2.616,0,0,0-1.571-.5,2.335,2.335,0,0,0-1.278.349,3.323,3.323,0,0,0-.96.944,7.454,7.454,0,0,0-.727,1.355,16.375,16.375,0,0,0-.566,1.579q1.131.5,2,.852t1.494.55a3.614,3.614,0,0,0,1,.193,2.012,2.012,0,0,0,1.549-.566,2.125,2.125,0,0,0,.526-1.509,4.537,4.537,0,0,0-.387-1.912" transform="translate(13.719 1.893)" fill="#1a1818"/>
    <path id="Path_229" data-name="Path 229" d="M270.733,44.756a20.3,20.3,0,0,1-3.668-.278,7.471,7.471,0,0,1-2.386-.805A4,4,0,0,1,263.3,42.4a5.762,5.762,0,0,1-2.022,1.789,6.675,6.675,0,0,1-2.981.564h-.6l.016-2.818h.588q2.169,0,2.919-1.076a4.834,4.834,0,0,0,.752-2.826q0-.744-.053-1.378c-.038-.423-.066-.877-.086-1.363l2.586-.31.231,3.624a6.62,6.62,0,0,0,.436,1.943q.355.907,1.1.906a36.327,36.327,0,0,1,2.734-4.08,19.371,19.371,0,0,1,2.693-2.856,10.471,10.471,0,0,1,2.665-1.688,6.79,6.79,0,0,1,2.654-.557,6.306,6.306,0,0,1,3.135.766,5.624,5.624,0,0,1,2.145,2.082,5.757,5.757,0,0,1,.774,2.974,6.242,6.242,0,0,1-.31,1.889,5.7,5.7,0,0,1-.883,1.656c.2.052.43.1.7.147a10.24,10.24,0,0,0,1.031.109q.62.038,1.563.038h.449v2.818H285.1a11.012,11.012,0,0,1-3.244-.4,6.351,6.351,0,0,1-2.146-1.115,11.3,11.3,0,0,1-3.345,1.115,25.594,25.594,0,0,1-4.815.4Zm4.438-9.236a8.167,8.167,0,0,0-1.982,1.284,16.5,16.5,0,0,0-2.069,2.145,31.275,31.275,0,0,0-2.136,2.988h2.508a29.84,29.84,0,0,0,3.856-.217,10.891,10.891,0,0,0,2.725-.666,3.9,3.9,0,0,0,1.627-1.146,2.626,2.626,0,0,0,.54-1.656,3.037,3.037,0,0,0-3.188-3.159,4.642,4.642,0,0,0-1.882.426m3.368-8.54-2.246,2.245-2.245-2.245,2.245-2.245Z" transform="translate(14.706 1.412)" fill="#1a1818"/>
    <path id="Path_230" data-name="Path 230" d="M283.491,44.674V41.856h1.673a3.39,3.39,0,0,0,2.778-.906,3.892,3.892,0,0,0,.705-2.455,16.766,16.766,0,0,0-.17-2.152,18.264,18.264,0,0,0-.526-2.555l2.648-.712a14.58,14.58,0,0,1,.526,2.632,23.4,23.4,0,0,1,.155,2.54,10.079,10.079,0,0,1-.5,3.305,4.324,4.324,0,0,1-1.82,2.284,7.036,7.036,0,0,1-3.762.836Zm6.628-16.259-2.245,2.245-2.245-2.245,2.245-2.245Z" transform="translate(16.179 1.493)" fill="#1a1818"/>
    <path id="Path_231" data-name="Path 231" d="M293.614,21.813a2.456,2.456,0,0,1-.372-1.441,2.838,2.838,0,0,1,.921-2.183,3.008,3.008,0,0,1,2.1-.852,4,4,0,0,1,.983.116,3.259,3.259,0,0,1,.89.379l.016,1.533a2.918,2.918,0,0,0-.9-.31,5.316,5.316,0,0,0-.774-.061,2.084,2.084,0,0,0-1.232.4,1.353,1.353,0,0,0-.566,1.178,1.386,1.386,0,0,0,.488.937,1.518,1.518,0,0,0,1.339.333.182.182,0,0,0,.069-.016c.026-.011.055-.02.086-.031l2.044-.743.217,1.533-5.9,2.338-.217-1.518,1.7-.666a4.217,4.217,0,0,1-.9-.928m3.669,23.35h-2.648V25.869h2.648Z" transform="translate(16.71 0.989)" fill="#1a1818"/>
    <path id="Path_232" data-name="Path 232" d="M228.5,80.326a4.3,4.3,0,0,1-1.7-1.463,5.871,5.871,0,0,1-.89-2.183,8.791,8.791,0,0,1-2,1.377,5.194,5.194,0,0,1-2.292.48,5.791,5.791,0,0,1-3.717-1.192,3.977,3.977,0,0,1-1.5-3.3,5.148,5.148,0,0,1,.48-2.214,5.97,5.97,0,0,1,1.471-1.9,11.216,11.216,0,0,1,2.516-1.634,25.251,25.251,0,0,1,3.616-1.4l-.109-.743,2.478-.5,1.347,9.507a3.749,3.749,0,0,0,.891,2.114,2.679,2.679,0,0,0,2.052.751h.464v2.818h-.526a5.822,5.822,0,0,1-2.577-.519m-3.229-7.873c-.011-.145-.025-.3-.047-.465l-.387-2.586a26.05,26.05,0,0,0-2.593,1.076,10.646,10.646,0,0,0-1.79,1.069,3.95,3.95,0,0,0-1.029,1.1,2.317,2.317,0,0,0-.334,1.2,1.822,1.822,0,0,0,.7,1.549,3.067,3.067,0,0,0,1.89.526,4.361,4.361,0,0,0,1.742-.356,3.3,3.3,0,0,0,1.346-1.038,2.6,2.6,0,0,0,.52-1.626c0-.154-.005-.3-.016-.448m-1.8-11.118L221.3,63.517l-2.152-2.183,2.152-2.152Zm5.141,0-2.168,2.183-2.152-2.183,2.152-2.152Z" transform="translate(12.349 3.377)" fill="#1a1818"/>
    <path id="Path_233" data-name="Path 233" d="M234.116,76.234a8.219,8.219,0,0,1-.6-1.618,6.664,6.664,0,0,1-.224-1.7,5.433,5.433,0,0,1,.867-3,6.376,6.376,0,0,1,2.276-2.136,6.111,6.111,0,0,1,3.036-.79,7.463,7.463,0,0,1,2.548.48,12.472,12.472,0,0,1,2.733,1.44l-1.038,2.308a12.776,12.776,0,0,0-2.2-1.061,5.636,5.636,0,0,0-1.873-.364,4,4,0,0,0-1.773.4,3.469,3.469,0,0,0-1.34,1.123,2.882,2.882,0,0,0-.511,1.711,3.922,3.922,0,0,0,.519,2.029,5.135,5.135,0,0,0,1.107,1.37,1.864,1.864,0,0,0,.79.488,2.2,2.2,0,0,0,.247-.016,1.639,1.639,0,0,0,.295-.062l6.55-1.563v2.818q-1.92.588-3.692,1.022t-3.438.72q-1.666.285-3.276.426t-3.221.138h-1.656V77.581h4.723a7.674,7.674,0,0,1-.844-1.347" transform="translate(13.139 3.823)" fill="#1a1818"/>
    <path id="Path_234" data-name="Path 234" d="M255.128,69.385a5.319,5.319,0,0,1,1.82,1.672,8.505,8.505,0,0,1,1.2,2.718,15.493,15.493,0,0,1,.457,3.7h1.858v2.818h-2.106A10.337,10.337,0,0,1,257,83.739a9.281,9.281,0,0,1-3.012,2.942,15.172,15.172,0,0,1-5.3,1.913l-.913-2.463a17.025,17.025,0,0,0,4.018-1.238,8.376,8.376,0,0,0,2.709-1.935,6.094,6.094,0,0,0,1.4-2.664h-2.446a6.907,6.907,0,0,1-4.406-1.185,4.321,4.321,0,0,1-1.463-3.569,8.99,8.99,0,0,1,.326-2.385,7.359,7.359,0,0,1,.982-2.175,5.16,5.16,0,0,1,1.634-1.572,4.321,4.321,0,0,1,2.276-.588,4.788,4.788,0,0,1,2.315.564m.922,8.091a16.922,16.922,0,0,0-.34-2.594,7,7,0,0,0-.65-1.834,2.881,2.881,0,0,0-.976-1.085,2.45,2.45,0,0,0-1.316-.356,1.922,1.922,0,0,0-1.556.673,3.845,3.845,0,0,0-.791,1.572,6.652,6.652,0,0,0-.224,1.6A1.705,1.705,0,0,0,250.932,77a4.544,4.544,0,0,0,2.376.473Z" transform="translate(14.13 3.928)" fill="#1a1818"/>
    <path id="Path_235" data-name="Path 235" d="M259.226,80.274V77.456h.573a2.634,2.634,0,0,0,1.749-.6,5.86,5.86,0,0,0,1.27-1.54q.558-.945,1.107-2.005a16.052,16.052,0,0,1,1.231-2.005,5.707,5.707,0,0,1,1.649-1.541,4.482,4.482,0,0,1,2.392-.6,5.024,5.024,0,0,1,4.583,2.523,8.452,8.452,0,0,1,1.006,2.632,6.014,6.014,0,0,0,.619,1.711,2.978,2.978,0,0,0,.961,1.061,2.229,2.229,0,0,0,1.223.355h.4v2.818h-.419a4.81,4.81,0,0,1-1.936-.41,3.443,3.443,0,0,1-1.533-1.309,5.055,5.055,0,0,1-1.61,1.511,4.879,4.879,0,0,1-2.494.564,6.2,6.2,0,0,1-1.951-.3,7.189,7.189,0,0,1-1.8-.906,14.917,14.917,0,0,1-1.827-1.5,12.58,12.58,0,0,1-1.285,1.285,4.4,4.4,0,0,1-1.378.8,5.666,5.666,0,0,1-1.889.271Zm8.625-7.842a5.386,5.386,0,0,0-1.146,1.339,15.136,15.136,0,0,0-.913,1.7,12.078,12.078,0,0,0,1.022.945,8.988,8.988,0,0,0,.991.712,5.952,5.952,0,0,0,1.185.573,3.111,3.111,0,0,0,.983.186A2.294,2.294,0,0,0,271.7,77.3a2.389,2.389,0,0,0,.566-1.719,4.194,4.194,0,0,0-.8-2.641,2.638,2.638,0,0,0-2.207-1.03,2.175,2.175,0,0,0-1.409.519" transform="translate(14.794 3.948)" fill="#1a1818"/>
    <path id="Path_236" data-name="Path 236" d="M298.923,80.371h-.9a11.584,11.584,0,0,1-3.461-.433,4.1,4.1,0,0,1-2.067-1.355,5,5,0,0,1-.929-2.361q-2.044,1.115-4.1,2.059A27.023,27.023,0,0,1,283.3,79.8a16.4,16.4,0,0,1-4.32.573h-2.555V77.553h2.6a15.726,15.726,0,0,0,4.561-.643,27.3,27.3,0,0,0,4.226-1.681q2.1-1.037,4.406-2.245c-.392-.144-.726-.273-1-.387s-.566-.24-.875-.379-.717-.307-1.223-.5q-1.1-.449-1.935-.774t-1.44-.5a3.67,3.67,0,0,0-1.006-.179,3.381,3.381,0,0,0-1.82.55,5.692,5.692,0,0,0-1.478,1.325l-.419.526L278.653,71.5l.233-.371a8.425,8.425,0,0,1,2.532-2.656,5.922,5.922,0,0,1,3.336-1,6.926,6.926,0,0,1,2.238.425,25.031,25.031,0,0,1,2.671,1.123q1.254.6,2.276,1.054t1.881.743a13.138,13.138,0,0,0,1.619.448,10.793,10.793,0,0,0,1.456.2v2.679a8.414,8.414,0,0,0-1.487.294,11.906,11.906,0,0,0-1.827.712,1.98,1.98,0,0,0,.526,1.386,3.017,3.017,0,0,0,1.509.775,10.8,10.8,0,0,0,2.47.24h.836Zm-9.663,4.614-2.245,2.245-2.245-2.245,2.245-2.245Z" transform="translate(15.775 3.851)" fill="#1a1818"/>
    <path id="Path_237" data-name="Path 237" d="M297.166,80.274V77.456h.573a2.634,2.634,0,0,0,1.749-.6,5.859,5.859,0,0,0,1.27-1.54q.558-.945,1.107-2.005a16.052,16.052,0,0,1,1.232-2.005,5.705,5.705,0,0,1,1.649-1.541,4.481,4.481,0,0,1,2.392-.6,5.024,5.024,0,0,1,4.583,2.523,8.453,8.453,0,0,1,1.006,2.632,6.015,6.015,0,0,0,.619,1.711,2.978,2.978,0,0,0,.961,1.061,2.229,2.229,0,0,0,1.223.355h.4v2.818h-.419a4.81,4.81,0,0,1-1.935-.41,3.442,3.442,0,0,1-1.533-1.309,5.055,5.055,0,0,1-1.61,1.511,4.879,4.879,0,0,1-2.494.564,6.2,6.2,0,0,1-1.951-.3,7.19,7.19,0,0,1-1.8-.906,14.915,14.915,0,0,1-1.827-1.5,12.58,12.58,0,0,1-1.285,1.285,4.394,4.394,0,0,1-1.378.8,5.666,5.666,0,0,1-1.889.271Zm8.625-7.842a5.387,5.387,0,0,0-1.146,1.339,15.14,15.14,0,0,0-.913,1.7,12.073,12.073,0,0,0,1.022.945,8.979,8.979,0,0,0,.99.712,5.952,5.952,0,0,0,1.185.573,3.112,3.112,0,0,0,.983.186,2.294,2.294,0,0,0,1.726-.589,2.389,2.389,0,0,0,.565-1.719,4.194,4.194,0,0,0-.8-2.641,2.638,2.638,0,0,0-2.207-1.03,2.175,2.175,0,0,0-1.409.519" transform="translate(16.959 3.948)" fill="#1a1818"/>
    <path id="Path_238" data-name="Path 238" d="M315.633,78.016a2.693,2.693,0,0,0,2.5-1.053,4.965,4.965,0,0,0,.644-2.632V59.358h2.648V74.316a7.347,7.347,0,0,1-1.4,4.87,5.467,5.467,0,0,1-4.4,1.649h-1.254V78.016Z" transform="translate(17.94 3.388)" fill="#1a1818"/>
    <path id="Path_239" data-name="Path 239" d="M424.085,45.571q-.622-.637-1.244-1.348T421.7,42.816a11.391,11.391,0,0,1-.837-1.273,2.085,2.085,0,0,1-.318-.919,1.384,1.384,0,0,1,.637-1.1,5.611,5.611,0,0,1,1.681-.83,14.158,14.158,0,0,1,2.259-.525,15.172,15.172,0,0,1,4.724,0,14.183,14.183,0,0,1,2.259.525,5.861,5.861,0,0,1,1.7.83,1.38,1.38,0,0,1,.651,1.1,2.191,2.191,0,0,1-.326.941,10.93,10.93,0,0,1-.867,1.318q-.541.718-1.192,1.459t-1.311,1.391q-.66.653-1.207,1.1a7.318,7.318,0,0,0,2.71,1.006,22.078,22.078,0,0,0,3.481.237h.889v2.7h-.889a20.682,20.682,0,0,1-2.844-.186,11.466,11.466,0,0,1-2.7-.725,14.88,14.88,0,0,1-2.9-1.607,24.73,24.73,0,0,0-2.139,1.34,12.135,12.135,0,0,0-1.644,1.37,5.6,5.6,0,0,0-1.053,1.422,3.336,3.336,0,0,0-.363,1.511,4.092,4.092,0,0,0,.711,2.4,4.494,4.494,0,0,0,2.14,1.577,9.888,9.888,0,0,0,3.562.556,17.07,17.07,0,0,0,2.651-.215,16.821,16.821,0,0,0,2.7-.66l.578,2.474a15.889,15.889,0,0,1-2.793.719,19.258,19.258,0,0,1-3.206.259,12.685,12.685,0,0,1-4.651-.785,6.612,6.612,0,0,1-3.1-2.37,6.757,6.757,0,0,1-1.1-3.954,5.363,5.363,0,0,1,.556-2.459,7.77,7.77,0,0,1,1.422-1.969A14.32,14.32,0,0,1,423.4,47.9q.97-.7,1.815-1.243-.5-.446-1.126-1.081m1.5-4.925a10.105,10.105,0,0,0-2.333.481A25.681,25.681,0,0,0,425.2,43.3q.977.97,2.295,2.11.785-.65,1.423-1.237t1.385-1.363q.747-.777,1.459-1.681a10.112,10.112,0,0,0-2.34-.481q-1.245-.111-1.926-.111-.666,0-1.9.111" transform="translate(23.945 2.168)" fill="#1a1818"/>
    <path id="Path_240" data-name="Path 240" d="M442.406,41.619l.237,3.466a4.3,4.3,0,0,0,.415,1.666,2.688,2.688,0,0,0,1,1.118,2.97,2.97,0,0,0,1.592.4h.3v2.7h-.327a6.027,6.027,0,0,1-1.9-.266,3.813,3.813,0,0,1-1.361-.771A4.576,4.576,0,0,1,441.4,48.7a4.7,4.7,0,0,1-2.1,1.718,6.975,6.975,0,0,1-2.725.548h-1.393v-2.7h1.393a3.276,3.276,0,0,0,2.688-.992,4.226,4.226,0,0,0,.807-2.741q0-.71-.036-1.348t-.1-1.274Zm-.044-4.888-2.149,2.148-2.147-2.148,2.147-2.147Z" transform="translate(24.835 1.974)" fill="#1a1818"/>
    <path id="Path_241" data-name="Path 241" d="M455.576,43.668a18.762,18.762,0,0,1,2.57-2.734,9.859,9.859,0,0,1,2.548-1.614,6.558,6.558,0,0,1,2.548-.534,6.046,6.046,0,0,1,3,.734,5.381,5.381,0,0,1,2.05,1.993,5.481,5.481,0,0,1,.741,2.844,5.6,5.6,0,0,1-.681,2.814,5.4,5.4,0,0,1-2.044,1.993,10.731,10.731,0,0,1-3.413,1.178,26.244,26.244,0,0,1-4.792.385h-.785a19.367,19.367,0,0,1-3.509-.267,7.128,7.128,0,0,1-2.281-.77,3.819,3.819,0,0,1-1.318-1.215,5.516,5.516,0,0,1-1.932,1.711,6.383,6.383,0,0,1-2.852.54h-.578l.016-2.7h.562A3.2,3.2,0,0,0,448.215,47a4.629,4.629,0,0,0,.719-2.7q0-.71-.052-1.318t-.081-1.3l2.474-.3.222,3.465a6.319,6.319,0,0,0,.414,1.859q.341.866,1.052.867a34.708,34.708,0,0,1,2.614-3.9m5.984-1.778a7.918,7.918,0,0,0-1.9,1.229,15.8,15.8,0,0,0-1.977,2.052,29.335,29.335,0,0,0-2.044,2.858h2.4a28.528,28.528,0,0,0,3.688-.207,10.487,10.487,0,0,0,2.607-.637,3.712,3.712,0,0,0,1.555-1.1,2.5,2.5,0,0,0,.518-1.585,2.9,2.9,0,0,0-3.051-3.021,4.447,4.447,0,0,0-1.8.407" transform="translate(25.387 2.213)" fill="#1a1818"/>
    <rect id="Rectangle_118" data-name="Rectangle 118" width="2.533" height="20.528" transform="translate(498.122 32.395)" fill="#1a1818"/>
    <path id="Path_242" data-name="Path 242" d="M403.7,82.929a20.95,20.95,0,0,0,4.021-.3,4.246,4.246,0,0,0,2.043-.873,2.394,2.394,0,0,0,.741-1.444,14.07,14.07,0,0,0,.126-1.993V65.081h2.533v13.2a16.738,16.738,0,0,0,.163,2.548,2.523,2.523,0,0,0,.771,1.57,2.868,2.868,0,0,0,1.925.534h.547v2.7h-.518a5.628,5.628,0,0,1-2.858-.6,3.312,3.312,0,0,1-1.436-1.785,6.412,6.412,0,0,1-1.963,1.466,8.658,8.658,0,0,1-2.548.719,25.757,25.757,0,0,1-3.443.2h-2.444a24.633,24.633,0,0,1-4.888-.429,10.6,10.6,0,0,1-3.5-1.3,5.717,5.717,0,0,1-2.1-2.229,6.906,6.906,0,0,1-.7-3.222,8.7,8.7,0,0,1,.229-2,12.438,12.438,0,0,1,.6-1.882l2.3.859a10.107,10.107,0,0,0-.393,1.392,6.857,6.857,0,0,0-.155,1.407,4.139,4.139,0,0,0,.549,2.2,3.976,3.976,0,0,0,1.622,1.451,8.843,8.843,0,0,0,2.688.808,24.671,24.671,0,0,0,3.762.252Zm-3.474-6.184a12.724,12.724,0,0,0,1.311.067,6.394,6.394,0,0,0,1.54-.17q.68-.171.681-.645,0-.281-.414-.422a9.634,9.634,0,0,0-1.022-.274,9.245,9.245,0,0,1-1.215-.356,2.64,2.64,0,0,1-1.014-.644,1.583,1.583,0,0,1-.408-1.148,2.4,2.4,0,0,1,.534-1.57,4.191,4.191,0,0,1,1.355-1.074,7.6,7.6,0,0,1,1.673-.629,6.4,6.4,0,0,1,1.488-.207l.1,1.747a5.3,5.3,0,0,0-1.067.126,7.159,7.159,0,0,0-1.184.355,3.831,3.831,0,0,0-.956.526.816.816,0,0,0-.377.622c0,.168.137.294.414.377s.617.169,1.022.253a6.911,6.911,0,0,1,1.207.37,2.373,2.373,0,0,1,.97.7,1.62,1.62,0,0,1,.3.512,2,2,0,0,1,.1.673,2.064,2.064,0,0,1-.534,1.518,2.876,2.876,0,0,1-1.4.756,7.725,7.725,0,0,1-1.858.215c-.386,0-.773-.017-1.163-.052s-.773-.081-1.148-.141V76.589a10.2,10.2,0,0,0,1.059.155" transform="translate(22.266 3.714)" fill="#1a1818"/>
    <path id="Path_243" data-name="Path 243" d="M416.328,85.4h-1.733V82.7h1.733Zm2.681-14.263-2.073,2.089-2.059-2.089,2.059-2.059Zm4.236,4.917.238,3.466a4.333,4.333,0,0,0,.414,1.666,2.685,2.685,0,0,0,1,1.118,2.965,2.965,0,0,0,1.592.4h.3v2.7h-.327a6.016,6.016,0,0,1-1.9-.266,3.822,3.822,0,0,1-1.364-.771,4.616,4.616,0,0,1-.962-1.228,4.721,4.721,0,0,1-2.1,1.718,6.972,6.972,0,0,1-2.725.548h-1.392V82.7h1.392a3.276,3.276,0,0,0,2.688-.993,4.223,4.223,0,0,0,.808-2.74q0-.71-.037-1.348t-.1-1.274Zm.682-4.917-2.073,2.089-2.059-2.089,2.059-2.059Z" transform="translate(23.661 3.942)" fill="#1a1818"/>
    <path id="Path_244" data-name="Path 244" d="M429.318,81.222a7.906,7.906,0,0,1-.577-1.548,6.377,6.377,0,0,1-.216-1.623,5.2,5.2,0,0,1,.83-2.873,6.091,6.091,0,0,1,2.178-2.043,5.831,5.831,0,0,1,2.9-.756,7.152,7.152,0,0,1,2.437.459,11.874,11.874,0,0,1,2.614,1.378l-.993,2.206a12.293,12.293,0,0,0-2.1-1.015,5.391,5.391,0,0,0-1.792-.348,3.809,3.809,0,0,0-1.7.386,3.31,3.31,0,0,0-1.281,1.073,2.76,2.76,0,0,0-.489,1.637,3.755,3.755,0,0,0,.5,1.94,4.922,4.922,0,0,0,1.059,1.311,1.781,1.781,0,0,0,.755.466,2.242,2.242,0,0,0,.237-.014,1.694,1.694,0,0,0,.282-.06l6.264-1.5V83q-1.836.564-3.532.978t-3.289.689q-1.592.274-3.132.407t-3.081.133h-1.585v-2.7h4.518a7.4,7.4,0,0,1-.808-1.289" transform="translate(24.289 4.131)" fill="#1a1818"/>
    <path id="Path_245" data-name="Path 245" d="M449.417,74.672a5.082,5.082,0,0,1,1.74,1.6,8.111,8.111,0,0,1,1.148,2.6,14.775,14.775,0,0,1,.438,3.54h1.777v2.7H452.5a9.85,9.85,0,0,1-1.3,3.3,8.871,8.871,0,0,1-2.881,2.814,14.514,14.514,0,0,1-5.065,1.83l-.873-2.355a16.318,16.318,0,0,0,3.843-1.185,8.017,8.017,0,0,0,2.591-1.852,5.821,5.821,0,0,0,1.341-2.548h-2.34a6.605,6.605,0,0,1-4.214-1.132,4.132,4.132,0,0,1-1.4-3.414,8.649,8.649,0,0,1,.311-2.281,7.011,7.011,0,0,1,.941-2.08,4.918,4.918,0,0,1,1.562-1.5,4.13,4.13,0,0,1,2.177-.562,4.578,4.578,0,0,1,2.215.54m.882,7.739a16.017,16.017,0,0,0-.327-2.481,6.612,6.612,0,0,0-.622-1.755,2.747,2.747,0,0,0-.933-1.037,2.33,2.33,0,0,0-1.259-.34,1.841,1.841,0,0,0-1.488.644,3.7,3.7,0,0,0-.755,1.5,6.333,6.333,0,0,0-.215,1.525,1.633,1.633,0,0,0,.7,1.488,4.354,4.354,0,0,0,2.274.451Z" transform="translate(25.237 4.231)" fill="#1a1818"/>
    <path id="Path_246" data-name="Path 246" d="M453.336,85.088v-2.7h.549a2.515,2.515,0,0,0,1.673-.57,5.609,5.609,0,0,0,1.215-1.474q.534-.9,1.059-1.919a15.343,15.343,0,0,1,1.178-1.918,5.478,5.478,0,0,1,1.577-1.474,4.284,4.284,0,0,1,2.289-.571,5.019,5.019,0,0,1,2.636.652,5.074,5.074,0,0,1,1.748,1.762,8.119,8.119,0,0,1,.962,2.518,5.727,5.727,0,0,0,.592,1.637,2.847,2.847,0,0,0,.92,1.014,2.124,2.124,0,0,0,1.169.34h.385v2.7h-.4a4.623,4.623,0,0,1-1.852-.392,3.3,3.3,0,0,1-1.465-1.252,4.858,4.858,0,0,1-1.54,1.444,4.661,4.661,0,0,1-2.385.54,5.917,5.917,0,0,1-1.867-.289,6.89,6.89,0,0,1-1.718-.867,14.149,14.149,0,0,1-1.748-1.437,12.015,12.015,0,0,1-1.229,1.229,4.2,4.2,0,0,1-1.317.763,5.443,5.443,0,0,1-1.808.259Zm8.25-7.5a5.139,5.139,0,0,0-1.1,1.281,14.426,14.426,0,0,0-.874,1.629,11.887,11.887,0,0,0,.978.9,8.615,8.615,0,0,0,.948.681,5.7,5.7,0,0,0,1.133.549,2.974,2.974,0,0,0,.94.178,2.19,2.19,0,0,0,1.652-.563,2.281,2.281,0,0,0,.541-1.644,4.006,4.006,0,0,0-.764-2.525,2.519,2.519,0,0,0-2.11-.985,2.079,2.079,0,0,0-1.348.5" transform="translate(25.872 4.25)" fill="#1a1818"/>
    <path id="Path_247" data-name="Path 247" d="M491.306,85.181h-.858a11.086,11.086,0,0,1-3.311-.414,3.924,3.924,0,0,1-1.977-1.3,4.8,4.8,0,0,1-.889-2.259q-1.957,1.066-3.925,1.969a25.708,25.708,0,0,1-3.985,1.451,15.649,15.649,0,0,1-4.132.549h-2.443v-2.7h2.487a15.016,15.016,0,0,0,4.362-.614,26.136,26.136,0,0,0,4.043-1.607q2.007-.993,4.215-2.148c-.376-.138-.695-.261-.957-.37s-.54-.229-.837-.363-.685-.294-1.169-.482q-1.051-.43-1.852-.74t-1.377-.482a3.549,3.549,0,0,0-.962-.17,3.227,3.227,0,0,0-1.74.525,5.445,5.445,0,0,0-1.415,1.267l-.4.5-2.266-1.111.222-.355a8.062,8.062,0,0,1,2.422-2.54,5.659,5.659,0,0,1,3.192-.956,6.6,6.6,0,0,1,2.139.408,23.509,23.509,0,0,1,2.555,1.073q1.2.577,2.178,1.007t1.8.711a12.522,12.522,0,0,0,1.547.429,10.479,10.479,0,0,0,1.392.192v2.562a7.994,7.994,0,0,0-1.423.281,11.319,11.319,0,0,0-1.747.682,1.89,1.89,0,0,0,.5,1.326,2.879,2.879,0,0,0,1.444.741,10.351,10.351,0,0,0,2.361.228h.8Zm-9.242,4.413-2.147,2.148-2.148-2.148,2.148-2.148Z" transform="translate(26.81 4.157)" fill="#1a1818"/>
    <path id="Path_248" data-name="Path 248" d="M498.069,85.14a6.889,6.889,0,0,1-1.718-.867,14.07,14.07,0,0,1-1.748-1.437,12.226,12.226,0,0,1-1.228,1.229,4.218,4.218,0,0,1-1.318.763,5.447,5.447,0,0,1-1.808.259h-.622v-2.7h.548a2.517,2.517,0,0,0,1.673-.57,5.611,5.611,0,0,0,1.215-1.474q.534-.9,1.058-1.919a15.464,15.464,0,0,1,1.178-1.918,5.5,5.5,0,0,1,1.578-1.474,4.284,4.284,0,0,1,2.289-.571,5.15,5.15,0,0,1,2.866.793,5.386,5.386,0,0,1,1.9,2.126,6.513,6.513,0,0,1,.672,2.977,6.251,6.251,0,0,1-.546,2.733,3.914,3.914,0,0,1-1.593,1.734,4.994,4.994,0,0,1-2.525.6,5.905,5.905,0,0,1-1.866-.289m-.193-7.554a5.114,5.114,0,0,0-1.1,1.281,14.266,14.266,0,0,0-.874,1.629,11.325,11.325,0,0,0,.933.867,9.068,9.068,0,0,0,.9.659,5.612,5.612,0,0,0,1.178.593,3.073,3.073,0,0,0,.985.192,2.185,2.185,0,0,0,1.651-.563A2.281,2.281,0,0,0,502.1,80.6a4.006,4.006,0,0,0-.763-2.525,2.522,2.522,0,0,0-2.111-.985,2.084,2.084,0,0,0-1.348.5" transform="translate(27.943 4.25)" fill="#1a1818"/>
    <path id="Path_249" data-name="Path 249" d="M261.7,160.33s24.29-12.954,10.8-51.819" transform="translate(14.935 6.193)" fill="none" stroke="#76b0e0" stroke-miterlimit="10" stroke-width="4"/>
    <path id="Path_250" data-name="Path 250" d="M203.489,338.176s55.6-34.546,42.1-73.41" transform="translate(11.613 15.11)" fill="none" stroke="#76b0e0" stroke-miterlimit="10" stroke-width="4"/>
    <path id="Path_251" data-name="Path 251" d="M126.413,133.021c-6.346,4.278,42.171,58.835,99.1,42.448" transform="translate(7.182 7.591)" fill="none" stroke="#76b0e0" stroke-miterlimit="10" stroke-width="4"/>
    <path id="Path_252" data-name="Path 252" d="M225.355,240.169c2.939-7.067-82.773-21.339-121.255,23.694" transform="translate(5.941 13.258)" fill="none" stroke="#76b0e0" stroke-miterlimit="10" stroke-width="4"/>
    <path id="Path_253" data-name="Path 253" d="M451,209.384s-52.9-13.495-110.655,3.239" transform="translate(19.423 11.656)" fill="none" stroke="#1c3265" stroke-miterlimit="10" stroke-width="4"/>
    <path id="Path_254" data-name="Path 254" d="M624.379,218.3S567.7,243.4,508.6,232.872" transform="translate(29.025 12.458)" fill="none" stroke="#1c3265" stroke-miterlimit="10" stroke-width="4"/>
    <path id="Path_255" data-name="Path 255" d="M686.833,289.9a2.933,2.933,0,0,1-1.246-1.342,4.728,4.728,0,0,1-.4-2,8.07,8.07,0,0,1,.16-1.574,10.655,10.655,0,0,1,.435-1.574l1.149.464q-.208.666-.353,1.367a6.614,6.614,0,0,0-.146,1.36,3.12,3.12,0,0,0,.261,1.335,1.8,1.8,0,0,0,.827.847,3.292,3.292,0,0,0,1.5.293,3.018,3.018,0,0,0,1.44-.311,1.973,1.973,0,0,0,.872-.974,4.3,4.3,0,0,0,.292-1.711V276.76h1.239v7.077a2.128,2.128,0,0,0,.292,1.226,1.352,1.352,0,0,0,1.168.415h.211V286.8h-.2a3.272,3.272,0,0,1-.667-.054,1.178,1.178,0,0,1-.427-.178,3.563,3.563,0,0,1-.388-.318,5.918,5.918,0,0,1-.249,1.812,3.362,3.362,0,0,1-.734,1.295,3.01,3.01,0,0,1-1.2.775,4.872,4.872,0,0,1-1.649.257,4.411,4.411,0,0,1-2.192-.481" transform="translate(39.103 15.794)" fill="#1a1818"/>
    <path id="Path_256" data-name="Path 256" d="M695.5,288.656l-1.013,1.02-1.007-1.02,1.007-1.005Zm-.623-2.156h-1.092v-1.317h1.092Zm3.35-4.565.116,1.693a2.121,2.121,0,0,0,.2.814,1.319,1.319,0,0,0,.488.546,1.452,1.452,0,0,0,.778.2h.145V286.5h-.16a2.947,2.947,0,0,1-.926-.13,1.866,1.866,0,0,1-.666-.376,2.251,2.251,0,0,1-.469-.6,2.3,2.3,0,0,1-1.028.839,3.4,3.4,0,0,1-1.332.267h-.68v-1.316h.68a1.6,1.6,0,0,0,1.314-.485,2.062,2.062,0,0,0,.394-1.338q0-.347-.019-.659c-.012-.207-.026-.414-.047-.623Zm-.326,6.722-1.013,1.02-1.006-1.02,1.006-1.005Z" transform="translate(39.576 16.09)" fill="#1a1818"/>
    <path id="Path_257" data-name="Path 257" d="M709.857,286.578h-.419a5.434,5.434,0,0,1-1.617-.2,1.92,1.92,0,0,1-.966-.633,2.336,2.336,0,0,1-.433-1.1q-.956.522-1.919.963a12.515,12.515,0,0,1-1.946.708,7.65,7.65,0,0,1-2.019.267h-1.193v-1.316h1.216a7.36,7.36,0,0,0,2.131-.3,12.838,12.838,0,0,0,1.975-.785q.981-.485,2.059-1.05c-.183-.067-.339-.127-.467-.181s-.264-.112-.409-.178-.335-.143-.572-.235q-.512-.209-.9-.362t-.673-.236a1.733,1.733,0,0,0-.469-.082,1.579,1.579,0,0,0-.851.257,2.662,2.662,0,0,0-.69.618l-.2.246-1.107-.542.108-.174a3.973,3.973,0,0,1,1.183-1.241,2.773,2.773,0,0,1,1.56-.466,3.219,3.219,0,0,1,1.045.2,11.7,11.7,0,0,1,1.248.524q.585.282,1.063.493t.88.347a6.142,6.142,0,0,0,.755.21,5.109,5.109,0,0,0,.681.093v1.253a3.932,3.932,0,0,0-.694.137,5.4,5.4,0,0,0-.854.333.922.922,0,0,0,.246.647,1.392,1.392,0,0,0,.706.362,5,5,0,0,0,1.153.113h.39Zm-4.515,2.156-1.049,1.05-1.049-1.05,1.049-1.049Z" transform="translate(39.911 16.011)" fill="#1a1818"/>
    <path id="Path_258" data-name="Path 258" d="M716.791,286.207a2.053,2.053,0,0,1-.712-.817,2.448,2.448,0,0,1-.956.846,2.606,2.606,0,0,1-1.13.261,2.4,2.4,0,0,1-1.283-.286,1.98,1.98,0,0,1-.719-.82,2.274,2.274,0,0,1-.906.82,3.436,3.436,0,0,1-1.541.286h-.506v-1.317h.52a2,2,0,0,0,1.39-.423,1.728,1.728,0,0,0,.463-1.335c0-.087,0-.177-.006-.267s-.013-.206-.022-.34-.024-.3-.043-.506l1.208-.152.115,1.476a2.3,2.3,0,0,0,.185.76,1.423,1.423,0,0,0,.444.572,1.174,1.174,0,0,0,.718.217,1.22,1.22,0,0,0,1.1-.492,2.234,2.234,0,0,0,.331-1.266c0-.087,0-.178-.008-.272s-.012-.207-.022-.339-.024-.3-.043-.5l1.208-.152.116,1.476a2.632,2.632,0,0,0,.164.746,1.374,1.374,0,0,0,.4.578,1,1,0,0,0,.677.224.85.85,0,0,0,.6-.217,1.352,1.352,0,0,0,.355-.611,3.187,3.187,0,0,0,.118-.917c0-.173-.005-.354-.019-.542s-.03-.437-.053-.745L720.13,282l.116,1.628a2.1,2.1,0,0,0,.2.811,1.341,1.341,0,0,0,.481.542,1.364,1.364,0,0,0,.749.2h.2V286.5h-.187a2.6,2.6,0,0,1-1.267-.279,1.448,1.448,0,0,1-.693-.835,2.571,2.571,0,0,1-.7.825,1.832,1.832,0,0,1-1.1.29,2.049,2.049,0,0,1-1.138-.29" transform="translate(40.464 16.094)" fill="#1a1818"/>
    <path id="Path_259" data-name="Path 259" d="M722.734,279.121l-1.013,1.02-1.006-1.02,1.006-1.006Zm-1.281,7.6h-.513V285.4h.513Zm-.181,0V285.4h.781a1.587,1.587,0,0,0,1.3-.423,1.82,1.82,0,0,0,.329-1.147,7.717,7.717,0,0,0-.079-1.006,8.6,8.6,0,0,0-.246-1.193l1.237-.333a6.693,6.693,0,0,1,.247,1.23,11.12,11.12,0,0,1,.072,1.186,4.676,4.676,0,0,1-.236,1.545,2.015,2.015,0,0,1-.85,1.067,3.28,3.28,0,0,1-1.758.391Zm3.864-7.6-1.013,1.02-1.005-1.02,1.005-1.006Z" transform="translate(41.131 15.872)" fill="#1a1818"/>
  </g>
</svg>
