<svg xmlns="http://www.w3.org/2000/svg" xmlns:xlink="http://www.w3.org/1999/xlink" width="287" height="317" viewBox="0 0 287 317"><defs><clipPath id="a"><rect width="111.034" height="113.559" fill="none"/></clipPath></defs><g transform="translate(-4111 -900)"><g transform="translate(4111 937)" fill="none" stroke="#dc9300" stroke-width="4"><circle cx="138.5" cy="138.5" r="138.5" stroke="none"/><circle cx="138.5" cy="138.5" r="136.5" fill="none"/></g><circle cx="114.5" cy="114.5" r="114.5" transform="translate(4169 900)" fill="#a0cae6"/><ellipse cx="21" cy="21.5" rx="21" ry="21.5" transform="translate(4159 1174)" fill="#fff"/><g transform="translate(4223.883 996.557)"><g clip-path="url(#a)"><path d="M55.516,111.032a55.516,55.516,0,1,1,55.516-55.516,55.578,55.578,0,0,1-55.516,55.516m0-105.24A49.724,49.724,0,1,0,105.24,55.516,49.78,49.78,0,0,0,55.516,5.792" fill="#fff"/><path d="M58.042,37.941A19.718,19.718,0,1,1,38.324,18.223,19.718,19.718,0,0,1,58.042,37.941" transform="translate(17.316 16.959)" fill="#f8852c"/><path d="M47.513,71.056A12.693,12.693,0,1,1,60.2,58.364a12.693,12.693,0,0,1-12.69,12.692" transform="translate(32.405 42.503)" fill="#fff"/><line y1="32.904" transform="translate(55.609 63.895)" fill="none" stroke="#f8852c" stroke-miterlimit="10" stroke-width="1"/><line y1="20.515" x2="25.724" transform="translate(23.454 60.8)" fill="none" stroke="#f8852c" stroke-miterlimit="10" stroke-width="1"/><line x2="32.078" y2="7.321" transform="translate(15.511 46.519)" fill="none" stroke="#f8852c" stroke-miterlimit="10" stroke-width="1"/><line x2="14.275" y2="29.645" transform="translate(37.763 18.614)" fill="none" stroke="#f8852c" stroke-miterlimit="10" stroke-width="1"/><line x1="14.277" y2="29.645" transform="translate(59.177 18.614)" fill="none" stroke="#f8852c" stroke-miterlimit="10" stroke-width="1"/><line x1="32.078" y2="7.321" transform="translate(63.629 46.518)" fill="none" stroke="#f8852c" stroke-miterlimit="10" stroke-width="1"/><line x1="25.724" y1="20.515" transform="translate(62.041 60.799)" fill="none" stroke="#f8852c" stroke-miterlimit="10" stroke-width="1"/><line y1="20.699" x2="8.636" transform="translate(44.814 60.846)" fill="none" stroke="#f8852c" stroke-miterlimit="10" stroke-width="1"/><line y1="6.153" x2="21.567" transform="translate(28.65 57.211)" fill="none" stroke="#f8852c" stroke-miterlimit="10" stroke-width="1"/><line x2="18.258" y2="13.026" transform="translate(32.785 39.389)" fill="none" stroke="#f8852c" stroke-miterlimit="10" stroke-width="1"/><line x2="1.201" y2="22.398" transform="translate(54.108 27.675)" fill="none" stroke="#f8852c" stroke-miterlimit="10" stroke-width="1"/><line x1="16.762" y2="14.903" transform="translate(59.799 37.042)" fill="none" stroke="#f8852c" stroke-miterlimit="10" stroke-width="1"/><line x1="22.102" y1="3.813" transform="translate(61.134 56.624)" fill="none" stroke="#f8852c" stroke-miterlimit="10" stroke-width="1"/><line x1="10.798" y1="19.658" transform="translate(58.309 60.586)" fill="none" stroke="#f8852c" stroke-miterlimit="10" stroke-width="1"/></g></g><rect width="144" height="53" rx="26.5" transform="translate(4212 930)" fill="#021423"/><text transform="translate(4288 950)" fill="#fff" font-size="26" font-family="Tajawal-ExtraBold, Tajawal" font-weight="800"><tspan x="-25.155" y="0">مركز</tspan><tspan y="0"></tspan><tspan x="-46.735" y="25">المعرفة</tspan></text></g></svg>