<svg xmlns="http://www.w3.org/2000/svg" xmlns:xlink="http://www.w3.org/1999/xlink" width="329" height="317" viewBox="0 0 329 317"><defs><clipPath id="a"><rect width="165.694" height="166.318" fill="none"/></clipPath></defs><g transform="translate(-796 -384)"><g transform="translate(809 384)" fill="none" stroke="#0cff2b" stroke-width="3"><ellipse cx="158" cy="158.5" rx="158" ry="158.5" stroke="none"/><ellipse cx="158" cy="158.5" rx="156.5" ry="157" fill="none"/></g><ellipse cx="115.5" cy="116" rx="115.5" ry="116" transform="translate(842 434)" fill="#1a6f93"/><ellipse cx="15.5" cy="16.5" rx="15.5" ry="16.5" transform="translate(796 479)" fill="#fff"/><g transform="matrix(0.998, 0.07, -0.07, 0.998, 880.602, 420.746)"><g transform="translate(0)" clip-path="url(#a)"><path d="M33.441,53.11A53.141,53.141,0,0,0,86.582,0,267.074,267.074,0,0,1,0,41.259,52.911,52.911,0,0,0,33.441,53.11" transform="translate(49.829 84.165)" fill="#76b0e0"/><path d="M44.215,35.472c-11.238,3.245-34.017,9.037-39.906.715C.352,25.75,21.861,8.215,30.188,1.813c-.026-.6-.04-1.206-.045-1.813-.1.069-.2.134-.3.2C20,7.206,9.934,14.571,3.107,24.841-1.09,31.065-1.854,39.3,6.014,42.919c12.342,5.234,30.453,1.024,43.056-1.968.255-.068.506-.145.759-.214a53.506,53.506,0,0,1-5.614-5.265" transform="translate(0 84.687)" fill="#4360a9"/><path d="M48.409,7.049C42.113-3.567,21.939-.834,0,6.32c.835.663,1.654,1.345,2.448,2.057,10.673-2.345,35.365-6.928,40.533,1.3,2.276,8.7-14.2,22.068-23.674,29.011a53.383,53.383,0,0,1,.822,9.26v.032c.057-.041.114-.08.171-.121C30.07,40.283,54.652,21.2,48.409,7.049" transform="translate(116.283 36.185)" fill="#4360a9"/><path d="M91.376,0c-1.425,1.045-2.695,1.948-3.715,2.663A328.413,328.413,0,0,1,3.052,44.388c-.875.261-1.9.567-3.052.9a53.5,53.5,0,0,0,5.614,5.265A267.046,267.046,0,0,0,92.2,9.292V9.26A53.384,53.384,0,0,0,91.376,0" transform="translate(44.215 74.873)" fill="#4360a9"/><path d="M164.692,7.049c-6.3-10.616-26.471-7.883-48.409-.729.835.663,1.654,1.345,2.448,2.057,10.673-2.345,35.365-6.928,40.533,1.3,2.276,8.7-14.2,22.068-23.674,29.011-1.424,1.045-2.695,1.948-3.715,2.663A328.4,328.4,0,0,1,47.267,83.076c-.877.261-1.9.567-3.052.9C32.977,87.218,10.2,93.01,4.308,84.689.352,74.252,21.861,56.717,30.188,50.314c-.026-.6-.04-1.206-.045-1.813-.1.069-.2.134-.3.2C20,55.708,9.934,63.073,3.107,73.343-1.09,79.567-1.854,87.8,6.014,91.421c12.342,5.234,30.453,1.024,43.056-1.968.254-.068.506-.145.759-.214A267.039,267.039,0,0,0,136.41,47.979c.057-.041.114-.08.171-.121,9.771-7.576,34.354-26.657,28.111-40.809" transform="translate(0 36.185)" fill="#1c3265"/><path d="M88.6,13.57c-.794-.711-1.613-1.394-2.448-2.057A53.126,53.126,0,0,0,0,53.141c0,.186.012.368.014.554.006.607.019,1.212.045,1.813A52.933,52.933,0,0,0,14.086,89.167c1.147-.332,2.175-.637,3.052-.9a328.4,328.4,0,0,0,84.609-41.725c1.02-.715,2.291-1.618,3.716-2.663A53.056,53.056,0,0,0,88.6,13.57" transform="translate(30.129 30.992)" fill="#76b0e0"/><path d="M84.631.759C73.072-3.571,59.061,11.2,46.444,30.52c1.065-.007,2.132.012,3.2.069C56.49,22.074,72.864,3.032,82.047,6.208c7.223,5.354,2.757,26.1-.276,37.443-.456,1.708-.881,3.208-1.227,4.4a328.484,328.484,0,0,1-39.8,85.529c-.521.753-1.13,1.635-1.818,2.612-6.725,9.57-20.851,28.356-30.655,25.558-9.623-5.654-3.843-32.8-1.363-43-.4-.452-.787-.915-1.172-1.384-.034.116-.073.23-.106.346C2.343,129.335-.89,141.383.224,153.664c.629,7.482,5.192,14.378,13.592,12.269,12.9-3.654,24.377-18.282,32.325-28.509.156-.212.3-.429.458-.642a267.034,267.034,0,0,0,41.633-86.4c.019-.068.04-.135.058-.2C91.158,38.15,98.364,7.877,84.631.759" transform="translate(37.006 0.001)" fill="#0b1b3b"/><path d="M34.842,17.42A17.421,17.421,0,1,1,17.422,0a17.42,17.42,0,0,1,17.42,17.42" transform="translate(83.211 85.951)" fill="#fff"/><path d="M11.644,4.98A5.854,5.854,0,1,1,4.979.066,5.855,5.855,0,0,1,11.644,4.98" transform="translate(93.002 92.41)" fill="#76b0e0"/><path d="M3.164,10.689A2.748,2.748,0,0,1,.089,7.3a9.732,9.732,0,0,1,17.7-2.677,2.748,2.748,0,0,1-1.935,4.15Z" transform="translate(91.915 105.024)" fill="#76b0e0"/><path d="M19.138,12.283A9.737,9.737,0,1,1,12.284.341a9.736,9.736,0,0,1,6.853,11.942" transform="translate(9.479 114.279)" fill="#fff"/><path d="M6.523,3.646A3.272,3.272,0,1,1,3.645.022,3.273,3.273,0,0,1,6.523,3.646" transform="translate(15.735 117.732)" fill="#76b0e0"/><path d="M1.364,5.029A1.536,1.536,0,0,1,.2,2.749a5.439,5.439,0,0,1,9.941,1.143,1.537,1.537,0,0,1-1.65,1.956Z" transform="translate(13.057 124.835)" fill="#76b0e0"/><path d="M19.138,12.283A9.737,9.737,0,1,1,12.284.341a9.736,9.736,0,0,1,6.853,11.942" transform="translate(87.608 3.303)" fill="#fff"/><path d="M6.523,3.646A3.272,3.272,0,1,1,3.645.022,3.273,3.273,0,0,1,6.523,3.646" transform="translate(93.864 6.756)" fill="#76b0e0"/><path d="M1.365,5.029A1.535,1.535,0,0,1,.2,2.749a5.438,5.438,0,0,1,9.94,1.143,1.536,1.536,0,0,1-1.65,1.956Z" transform="translate(91.185 13.861)" fill="#76b0e0"/></g></g><rect width="144" height="53" rx="26.5" transform="translate(886 595)" fill="#021423"/><text transform="translate(958 615)" fill="#fff" font-size="26" font-family="Tajawal-ExtraBold, Tajawal" font-weight="800"><tspan x="-21.866" y="0">بناء</tspan><tspan y="0"></tspan><tspan x="-56.732" y="25">الشراكات</tspan></text></g></svg>