<svg xmlns="http://www.w3.org/2000/svg" xmlns:xlink="http://www.w3.org/1999/xlink" width="305" height="317" viewBox="0 0 305 317"><defs><clipPath id="a"><rect width="170.335" height="93.186" fill="none"/></clipPath></defs><g transform="translate(-4103 -901)"><g transform="translate(4103 901)" fill="none" stroke="#58b9a9" stroke-width="2"><circle cx="152.5" cy="152.5" r="152.5" stroke="none"/><circle cx="152.5" cy="152.5" r="151.5" fill="none"/></g><ellipse cx="113" cy="112.5" rx="113" ry="112.5" transform="translate(4132 954)" fill="#82b97b"/><rect width="144" height="41" rx="20.5" transform="translate(4173 1101)" fill="#021423"/><text transform="translate(4239 1130)" fill="#fff" font-size="37" font-family="Tajawal-ExtraBold, Tajawal" font-weight="800"><tspan x="-39.812" y="0">تعلم</tspan></text><ellipse cx="10.5" cy="11" rx="10.5" ry="11" transform="translate(4245 1196)" fill="#fff"/><g transform="translate(4160.024 990.134)"><g transform="translate(0 0)" clip-path="url(#a)"><path d="M157.062,42.692S123.228,79.1,81.494,79.1,5.924,42.692,5.924,42.692,39.758,6.287,81.494,6.287s75.568,36.405,75.568,36.405" transform="translate(3.675 3.9)" fill="#fff"/><path d="M85.168,93.184C38.863,93.184.8,47.567.425,47.107L0,46.592l.425-.515C.8,45.617,38.863,0,85.168,0s84.365,45.617,84.744,46.077l.423.515-.423.515c-.379.46-38.44,46.077-84.744,46.077M2.113,46.592c4.341,5.031,40.174,44.972,83.055,44.972s78.713-39.941,83.054-44.972C163.881,41.561,128.05,1.62,85.168,1.62S6.454,41.561,2.113,46.592" transform="translate(0 0)" fill="#4360a9"/><path d="M102.929,42.449A35.992,35.992,0,1,1,66.937,6.457a35.992,35.992,0,0,1,35.992,35.992" transform="translate(19.195 4.006)" fill="#a3b4dd"/><path d="M76.929,35.03a17.19,17.19,0,1,1-17.19-17.19,17.19,17.19,0,0,1,17.19,17.19" transform="translate(26.394 11.067)" fill="#4360a9"/><path d="M65.067,12.475l4.261,8.633,9.526,1.384-6.893,6.721L73.588,38.7l-8.521-4.48L56.546,38.7l1.627-9.489L51.28,22.491l9.526-1.384Z" transform="translate(31.809 7.739)" fill="#fff"/></g></g></g></svg>