<svg xmlns="http://www.w3.org/2000/svg" width="3719.188" height="1923.005" viewBox="0 0 3719.188 1923.005">
  <g id="Group_329" data-name="Group 329" transform="translate(837.486 -1600.995)">
    <path id="Path_26" data-name="Path 26" d="M-101.082,419.053c94.091,43.866,328,348.727,670.494,307.6s601.083,14.819,813.514,268.36,1073.814,683.2,1800.195-210.56c82.8-619.6-3285.648-518.163-3285.648-518.163Z" transform="matrix(-0.966, 0.259, -0.259, -0.966, 2581.235, 2951.017)" fill="#a0cae6"/>
    <path id="Path_305" data-name="Path 305" d="M-101.082,360.675C-6.991,402.368,406.043,583.886,872.41,630.44s705.863,257.8,705.863,257.8,878.468,669.238,1604.848-180.261c59.533-423.431-2093.9-748.03-2645.472-554.952s-640.176,62.452-640.176,62.452Z" transform="matrix(-0.966, 0.259, -0.259, -0.966, 2805.606, 2729.406)" fill="none" stroke="#707070" stroke-width="3"/>
  </g>
</svg>
